<?xml version="1.0" encoding="UTF-8"?>
<svg version="1.1" xmlns="http://www.w3.org/2000/svg" width="60" height="60">
<path d="M0 0 C19.8 0 39.6 0 60 0 C60 19.8 60 39.6 60 60 C40.2 60 20.4 60 0 60 C0 40.2 0 20.4 0 0 Z " fill="#D5E9BE" transform="translate(0,0)"/>
<path d="M0 0 C19.8 0 39.6 0 60 0 C60 19.8 60 39.6 60 60 C40.2 60 20.4 60 0 60 C0 40.2 0 20.4 0 0 Z M9 17 C5.53116826 22.74525257 5.06288349 28.44919513 6 35 C8.31108894 42.35054678 12.60667716 47.73778478 19 52 C25.03973865 54.88857066 31.34461723 55.17307413 37.7265625 53.125 C44.90980644 49.82635021 48.97654037 45.50733002 52.875 38.75 C54.7793019 32.40232699 55.20335262 25.93767376 52.5 19.75 C48.64701181 13.11959277 42.32496261 8.1469718 35 6 C23.58508515 4.66919712 16.18324935 8.13240253 9 17 Z " fill="#03ACD3" transform="translate(0,0)"/>
<path d="M0 0 C5.37416671 3.74481298 9.2920147 8.37211206 11.33203125 14.625 C12.50002677 22.62884299 10.9429573 29.00477872 6.33203125 35.625 C1.86520712 40.65415591 -3.48560092 44.11709626 -10.2734375 44.94140625 C-16.60264499 45.21203443 -21.54878718 44.48873746 -26.66796875 40.625 C-32.92854398 34.81790708 -36.72232718 28.88002426 -37.10546875 20.1875 C-36.86518056 12.86872212 -34.29109103 8.15397728 -29.41796875 2.8125 C-20.92209981 -5.08811698 -9.96181392 -5.52213937 0 0 Z M-9.66796875 3.625 C-10.96430496 4.69145115 -10.96430496 4.69145115 -10.73046875 7.1875 C-10.70984375 7.991875 -10.68921875 8.79625 -10.66796875 9.625 C-9.67796875 9.625 -8.68796875 9.625 -7.66796875 9.625 C-5.99696898 9.93588368 -4.32925338 10.26580332 -2.66796875 10.625 C-2.33796875 11.615 -2.00796875 12.605 -1.66796875 13.625 C-6.41796875 13.75 -6.41796875 13.75 -8.66796875 12.625 C-8.33796875 13.945 -8.00796875 15.265 -7.66796875 16.625 C-10.66796875 10.625 -10.66796875 10.625 -11.79296875 8.3125 C-12.55244766 6.63977314 -12.55244766 6.63977314 -13.66796875 5.625 C-16.36665925 5.55174564 -19.03299431 5.53277649 -21.73046875 5.5625 C-25.65953125 5.5934375 -25.65953125 5.5934375 -29.66796875 5.625 C-29.66796875 15.525 -29.66796875 25.425 -29.66796875 35.625 C-18.44796875 35.625 -7.22796875 35.625 4.33203125 35.625 C4.31140625 32.69625 4.29078125 29.7675 4.26953125 26.75 C4.24583194 19.96910834 4.44891304 13.35877635 5.33203125 6.625 C2.09321121 4.74017599 -0.63698229 4.24034069 -4.35546875 3.9375 C-5.81533203 3.80794922 -5.81533203 3.80794922 -7.3046875 3.67578125 C-8.08457031 3.65902344 -8.86445312 3.64226563 -9.66796875 3.625 Z " fill="#F1FAFB" transform="translate(42.66796875,9.375)"/>
<path d="M0 0 C5.28 0 10.56 0 16 0 C16 4.62 16 9.24 16 14 C10.72 14 5.44 14 0 14 C0 9.38 0 4.76 0 0 Z " fill="#0BAECF" transform="translate(31,31)"/>
<path d="M0 0 C5.28 0 10.56 0 16 0 C16 4.62 16 9.24 16 14 C10.72 14 5.44 14 0 14 C0 9.38 0 4.76 0 0 Z " fill="#05ACD0" transform="translate(13,31)"/>
<path d="M0 0 C5.28 0 10.56 0 16 0 C16 4.62 16 9.24 16 14 C10.72 14 5.44 14 0 14 C0 9.38 0 4.76 0 0 Z " fill="#09ADCE" transform="translate(13,15)"/>
<path d="M0 0 C0.33 0 0.66 0 1 0 C1 3.63 1 7.26 1 11 C2.22976562 11.18175781 2.22976562 11.18175781 3.484375 11.3671875 C4.56203125 11.53476562 5.6396875 11.70234375 6.75 11.875 C7.81734375 12.03742187 8.8846875 12.19984375 9.984375 12.3671875 C13 13 13 13 17 15 C12.05 15 7.1 15 2 15 C2 19.29 2 23.58 2 28 C1.34 28 0.68 28 0 28 C0 23.71 0 19.42 0 15 C-4.95 15 -9.9 15 -15 15 C-15 14.34 -15 13.68 -15 13 C-10.05 13 -5.1 13 0 13 C0 8.71 0 4.42 0 0 Z " fill="#B1E4EF" transform="translate(29,16)"/>
<path d="M0 0 C1.21816406 0.03480469 1.21816406 0.03480469 2.4609375 0.0703125 C3.68683594 0.09738281 3.68683594 0.09738281 4.9375 0.125 C5.87722656 0.15980469 5.87722656 0.15980469 6.8359375 0.1953125 C6.8359375 1.5153125 6.8359375 2.8353125 6.8359375 4.1953125 C4.45029673 3.61946818 2.16910966 2.97303655 -0.1640625 2.1953125 C-0.1640625 2.8553125 -0.1640625 3.5153125 -0.1640625 4.1953125 C1.0115625 4.411875 1.0115625 4.411875 2.2109375 4.6328125 C4.8359375 5.1953125 4.8359375 5.1953125 6.8359375 6.1953125 C6.5059375 7.8453125 6.1759375 9.4953125 5.8359375 11.1953125 C2.5359375 11.1953125 -0.7640625 11.1953125 -4.1640625 11.1953125 C-3.9784375 10.4528125 -3.7928125 9.7103125 -3.6015625 8.9453125 C-2.98933822 6.27301877 -2.98933822 6.27301877 -3.7265625 4.0078125 C-3.8709375 3.4096875 -4.0153125 2.8115625 -4.1640625 2.1953125 C-2.1640625 0.1953125 -2.1640625 0.1953125 0 0 Z " fill="#BCDA8A" transform="translate(37.1640625,31.8046875)"/>
<path d="M0 0 C3.375 -0.125 3.375 -0.125 7 0 C9 2 9 2 9.125 5.625 C9.08375 6.73875 9.0425 7.8525 9 9 C9.66 9 10.32 9 11 9 C11 9.99 11 10.98 11 12 C7.04 12 3.08 12 -1 12 C-1.33 10.35 -1.66 8.7 -2 7 C-0.35 6.67 1.3 6.34 3 6 C2.67 6.99 2.34 7.98 2 9 C2.99 8.67 3.98 8.34 5 8 C5 6.02 5 4.04 5 2 C4.01 2 3.02 2 2 2 C2 2.66 2 3.32 2 4 C0.68 4 -0.64 4 -2 4 C-1.34 2.68 -0.68 1.36 0 0 Z " fill="#AFD78F" transform="translate(17,32)"/>
<path d="M0 0 C0.33 1.32 0.66 2.64 1 4 C-1.31 3.67 -3.62 3.34 -6 3 C-6 4.32 -6 5.64 -6 7 C-3.69 7 -1.38 7 1 7 C0 10 0 10 -2 11 C-7.25465839 11.44720497 -7.25465839 11.44720497 -9.875 9.875 C-11.54663625 7.08893958 -11.46376624 5.18011138 -11 2 C-7.8024827 -1.96492145 -4.62667537 -0.97871979 0 0 Z " fill="#B5D88D" transform="translate(26,17)"/>
<path d="M0 0 C2.31 0 4.62 0 7 0 C7 4.62 7 9.24 7 14 C6.34 13.34 5.68 12.68 5 12 C4.67 12.33 4.34 12.66 4 13 C1.66702567 13.04092937 -0.66705225 13.04241723 -3 13 C-3 12.67 -3 12.34 -3 12 C-1.02 11.67 0.96 11.34 3 11 C3.33 9.68 3.66 8.36 4 7 C1.69 6.34 -0.62 5.68 -3 5 C-3 4.34 -3 3.68 -3 3 C-0.61435923 3.57584432 1.66682784 4.22227595 4 5 C4 3.68 4 2.36 4 1 C2.68 0.67 1.36 0.34 0 0 Z " fill="#2EB7C9" transform="translate(40,31)"/>
<path d="M0 0 C1.8125 1.5 1.8125 1.5 3 3 C2.67 3.99 2.34 4.98 2 6 C1.65772583 7.33106622 1.32248257 8.66400079 1 10 C-1.8125 10.6875 -1.8125 10.6875 -5 11 C-6.875 9.5625 -6.875 9.5625 -8 8 C-7.67 7.34 -7.34 6.68 -7 6 C-6.34 6.33 -5.68 6.66 -5 7 C-3.68 7 -2.36 7 -1 7 C-1.33 6.01 -1.66 5.02 -2 4 C-3.65 3.67 -5.3 3.34 -7 3 C-7 2.34 -7 1.68 -7 1 C-4.45132831 -0.27433584 -2.82594567 -0.27570202 0 0 Z " fill="#64CBE3" transform="translate(42,16)"/>
<path d="M0 0 C3.86695678 0 6.5088452 1.41909971 10 3 C10 3.99 10 4.98 10 6 C8.35 6.33 6.7 6.66 5 7 C5.33 7.99 5.66 8.98 6 10 C3.13367003 8.94901234 2.16993357 8.33137046 0.75 5.5625 C0 3 0 3 0 0 Z " fill="#D1EEEA" transform="translate(31,17)"/>
<path d="M0 0 C2 3 2 3 4 6 C6.13713301 6.40171173 6.13713301 6.40171173 8.5 6.25 C9.69109375 6.22679687 9.69109375 6.22679687 10.90625 6.203125 C13.05735328 6.12080522 13.05735328 6.12080522 15 5 C15 6.65 15 8.3 15 10 C9.43109483 9.52013969 4.32932432 8.70084819 -1 7 C-0.67 4.69 -0.34 2.38 0 0 Z " fill="#D0E29B" transform="translate(31,20)"/>
<path d="M0 0 C5.28 0 10.56 0 16 0 C15.67 1.98 15.34 3.96 15 6 C14.54625 5.360625 14.0925 4.72125 13.625 4.0625 C9.63586681 0.92818106 6.01415593 1.26390294 1 1 C1 5.29 1 9.58 1 14 C0.67 14 0.34 14 0 14 C0 9.38 0 4.76 0 0 Z " fill="#23B5D4" transform="translate(13,15)"/>
<path d="M0 0 C0.33 0 0.66 0 1 0 C1.66 3.96 2.32 7.92 3 12 C4.2375 11.979375 5.475 11.95875 6.75 11.9375 C9.6640825 11.93233319 12.20953327 12.06984442 15 13 C15.33 12.01 15.66 11.02 16 10 C16 11.32 16 12.64 16 14 C10.72 14 5.44 14 0 14 C0 9.38 0 4.76 0 0 Z " fill="#25B6D4" transform="translate(13,31)"/>
<path d="M0 0 C2.98704569 0.49784095 4.39324263 1.26216175 7 3 C7.6875 5.125 7.6875 5.125 8 7 C7.67 6.34 7.34 5.68 7 5 C4.69 5.33 2.38 5.66 0 6 C-0.38218767 4.34385343 -0.71395102 2.67542976 -1 1 C-0.67 0.67 -0.34 0.34 0 0 Z " fill="#1DB2C7" transform="translate(20,19)"/>
<path d="M0 0 C1.98 0.66 3.96 1.32 6 2 C6 2.66 6 3.32 6 4 C3.36 4.33 0.72 4.66 -2 5 C-1.125 1.125 -1.125 1.125 0 0 Z " fill="#82CBA0" transform="translate(35,38)"/>
<path d="M0 0 C0.99 0 1.98 0 3 0 C3.33 1.98 3.66 3.96 4 6 C2.68 6.33 1.36 6.66 0 7 C0 6.34 0 5.68 0 5 C-1.45833358 3.37485532 -1.45833358 3.37485532 -3 2 C-2.01 2 -1.02 2 0 2 C0 1.34 0 0.68 0 0 Z " fill="#56C0B1" transform="translate(19,34)"/>
<path d="M0 0 C3.63 0 7.26 0 11 0 C10.67 0.66 10.34 1.32 10 2 C7.69 2 5.38 2 3 2 C3 3.32 3 4.64 3 6 C2.01 6.99 1.02 7.98 0 9 C0 6.03 0 3.06 0 0 Z " fill="#10AFCC" transform="translate(14,31)"/>
<path d="M0 0 C2.33944736 0.28730055 4.6739143 0.61936779 7 1 C6.4225 1.268125 5.845 1.53625 5.25 1.8125 C2.9674132 3.01719859 1.0262058 4.40798115 -1 6 C-1.042721 4.33388095 -1.04063832 2.66617115 -1 1 C-0.67 0.67 -0.34 0.34 0 0 Z " fill="#CEE196" transform="translate(33,13)"/>
<path d="M0 0 C2.31 0.33 4.62 0.66 7 1 C7.33 2.32 7.66 3.64 8 5 C4.20411134 4.45773019 2.52788007 2.79872437 0 0 Z " fill="#A8D592" transform="translate(19,16)"/>
<path d="M0 0 C0.66 1.32 1.32 2.64 2 4 C1.071875 3.835 0.14375 3.67 -0.8125 3.5 C-3.95621353 2.92251612 -3.95621353 2.92251612 -7 3 C-7 2.34 -7 1.68 -7 1 C-4.53721199 -0.231394 -2.7204945 -0.07159196 0 0 Z " fill="#35BCDB" transform="translate(42,16)"/>
<path d="M0 0 C2.97 0 5.94 0 9 0 C9 1.32 9 2.64 9 4 C8.01 4 7.02 4 6 4 C6 3.01 6 2.02 6 1 C4.02 1 2.04 1 0 1 C0 0.67 0 0.34 0 0 Z " fill="#9DD296" transform="translate(35,32)"/>
</svg>
