<?xml version="1.0" encoding="UTF-8"?>
<svg version="1.1" xmlns="http://www.w3.org/2000/svg" width="256" height="256">
<path d="M0 0 C84.48 0 168.96 0 256 0 C256 84.48 256 168.96 256 256 C171.52 256 87.04 256 0 256 C0 171.52 0 87.04 0 0 Z " fill="#FEFEFE" transform="translate(0,0)"/>
<path d="M0 0 C3.68069887 1.53643852 5.98775204 3.78150945 8.75 6.625 C9.54921875 7.44226562 10.3484375 8.25953125 11.171875 9.1015625 C11.77515625 9.72804688 12.3784375 10.35453125 13 11 C11.27473299 14.77953842 8.93348748 17.06651252 6 20 C5.505 21.485 5.505 21.485 5 23 C9.22680101 22.28946017 10.75788698 20.33988329 13.4375 17.1796875 C15 16 15 16 16.89453125 16.05078125 C19.73628477 17.33194285 21.49787497 19.10115968 23.6875 21.3125 C24.47511719 22.09238281 25.26273437 22.87226562 26.07421875 23.67578125 C28 26 28 26 28.45703125 28.16796875 C28.63621094 28.77253906 28.81539063 29.37710938 29 30 C30.64730074 30.71317774 32.31754277 31.37425252 34 32 C36.16796875 33.91015625 36.16796875 33.91015625 38.1875 36.0625 C40.80417081 38.92137806 40.80417081 38.92137806 44 41 C44 41.99 44 42.98 44 44 C45.485 44.495 45.485 44.495 47 45 C47.5878125 43.576875 47.5878125 43.576875 48.1875 42.125 C50.31798976 38.45174179 51.17985125 38.4214507 55 37 C56.6228095 35.4875579 58.10032375 33.90287749 59.5703125 32.2421875 C61 31 61 31 64 31 C65.71875 32.64453125 65.71875 32.64453125 67.5 34.8125 C69.58277276 37.32004878 71.65488525 39.73353239 74 42 C72.75304528 45.74086417 70.80733432 47.25795253 68 50 C67.34 50.928125 66.68 51.85625 66 52.8125 C64 55 64 55 61.25 55.3125 C60.5075 55.209375 59.765 55.10625 59 55 C58.9175 55.73863281 58.835 56.47726563 58.75 57.23828125 C57.8387406 60.59380416 56.53397797 61.84809534 54 64.1875 C51.10148878 66.7956543 51.10148878 66.7956543 49 70 C47.68 70 46.36 70 45 70 C45 71.32 45 72.64 45 74 C43.02866014 75.37535339 41.02318078 76.70211044 39 78 C38.11120997 79.05511331 37.25603709 80.13950064 36.4375 81.25 C34 84 34 84 31.5 84.6875 C27.99320456 83.72313125 26.4002165 81.65969936 24 79 C23.34 78.67 22.68 78.34 22 78 C22 77.01 22 76.02 22 75 C21.01 75.495 21.01 75.495 20 76 C20.33 77.65 20.66 79.3 21 81 C21.66 81 22.32 81 23 81 C28 86.47619048 28 86.47619048 28 89 C25.47107279 91.73397536 23.10404867 93.93063422 20 96 C19.505 97.485 19.505 97.485 19 99 C16.9375 99.6875 16.9375 99.6875 15 100 C14.67 99.01 14.34 98.02 14 97 C12.67019674 96.65285136 11.33628584 96.32129277 10 96 C7.57462293 93.97249377 5.64341586 91.70111604 4 89 C4.125 86.0625 4.125 86.0625 5 84 C3.824375 84.495 3.824375 84.495 2.625 85 C0 86 0 86 -2 86 C-2.495 87.485 -2.495 87.485 -3 89 C-4.29355827 90.37195574 -5.62298702 91.71182656 -7 93 C-7.99 92.505 -7.99 92.505 -9 92 C-9 91.01 -9 90.02 -9 89 C-10.32 90.32 -11.64 91.64 -13 93 C-12.34 93 -11.68 93 -11 93 C-11.33 94.98 -11.66 96.96 -12 99 C-13.98 99.495 -13.98 99.495 -16 100 C-15.125 96.125 -15.125 96.125 -14 95 C-14.99 94.505 -14.99 94.505 -16 94 C-16 94.66 -16 95.32 -16 96 C-17.98 96.495 -17.98 96.495 -20 97 C-24 92.25 -24 92.25 -24 90 C-23.34 90 -22.68 90 -22 90 C-22 89.01 -22 88.02 -22 87 C-22.66 87 -23.32 87 -24 87 C-24 86.01 -24 85.02 -24 84 C-22.68 84 -21.36 84 -20 84 C-20 82.68 -20 81.36 -20 80 C-19.34 80 -18.68 80 -18 80 C-18.33 81.98 -18.66 83.96 -19 86 C-19.66 86 -20.32 86 -21 86 C-21 86.66 -21 87.32 -21 88 C-20.34 88 -19.68 88 -19 88 C-18.67 89.65 -18.34 91.3 -18 93 C-16.25314692 89.17254549 -15.65113667 85.87557277 -15.375 81.6875 C-15.30023438 80.61886719 -15.22546875 79.55023438 -15.1484375 78.44921875 C-15.09945312 77.64097656 -15.05046875 76.83273438 -15 76 C-14.01 76.495 -14.01 76.495 -13 77 C-13 77.66 -13 78.32 -13 79 C-12.01 79 -11.02 79 -10 79 C-9.505 77.02 -9.505 77.02 -9 75 C-11.97 74.01 -11.97 74.01 -15 73 C-15 72.34 -15 71.68 -15 71 C-16.30887458 69.64264858 -17.64852862 68.31494512 -19 67 C-24 61.47592068 -24 61.47592068 -24 59 C-24.99 58.67 -25.98 58.34 -27 58 C-27.33 57.34 -27.66 56.68 -28 56 C-28.48210937 56.56589844 -28.96421875 57.13179687 -29.4609375 57.71484375 C-30.09257813 58.44832031 -30.72421875 59.18179688 -31.375 59.9375 C-32.00148438 60.66839844 -32.62796875 61.39929688 -33.2734375 62.15234375 C-35 64 -35 64 -37 65 C-39.1640625 64.66015625 -39.1640625 64.66015625 -41.625 64.0625 C-42.44226563 63.86785156 -43.25953125 63.67320313 -44.1015625 63.47265625 C-45.04128906 63.23869141 -45.04128906 63.23869141 -46 63 C-46 63.66 -46 64.32 -46 65 C-45.01 65.33 -44.02 65.66 -43 66 C-43 67.32 -43 68.64 -43 70 C-44.32 70 -45.64 70 -47 70 C-47 68.68 -47 67.36 -47 66 C-47.5775 65.9175 -48.155 65.835 -48.75 65.75 C-51.6539336 64.78202213 -53.03740604 63.31305716 -55 61 C-55 60.34 -55 59.68 -55 59 C-55.66 59 -56.32 59 -57 59 C-57 56 -57 56 -55.125 53.8125 C-53 52 -53 52 -51 52 C-50.34 50.68 -49.68 49.36 -49 48 C-48.34 48 -47.68 48 -47 48 C-46.67 47.01 -46.34 46.02 -46 45 C-44.35 45.33 -42.7 45.66 -41 46 C-41.33 44.35 -41.66 42.7 -42 41 C-41.34 41 -40.68 41 -40 41 C-39.67 40.01 -39.34 39.02 -39 38 C-38.34 38 -37.68 38 -37 38 C-37 38.99 -37 39.98 -37 41 C-35.35 41 -33.7 41 -32 41 C-33.32 39.35 -34.64 37.7 -36 36 C-34.68 36 -33.36 36 -32 36 C-31.67 34.35 -31.34 32.7 -31 31 C-29.68 31 -28.36 31 -27 31 C-26.67 31.66 -26.34 32.32 -26 33 C-25.01 33 -24.02 33 -23 33 C-23.53625 32.2575 -24.0725 31.515 -24.625 30.75 C-26 28 -26 28 -25.5625 26.0625 C-23.71857879 23.628524 -21.599155 21.63681199 -19.3984375 19.52734375 C-17.59076739 17.55304483 -16.75040807 15.55138742 -16 13 C-15.01 13 -14.02 13 -13 13 C-12.7525 12.195625 -12.505 11.39125 -12.25 10.5625 C-11.63125 9.2940625 -11.63125 9.2940625 -11 8 C-10.3915625 7.855625 -9.783125 7.71125 -9.15625 7.5625 C-6.35960826 6.83294128 -5.21984878 5.5209939 -3.25 3.4375 C-2.63640625 2.79683594 -2.0228125 2.15617187 -1.390625 1.49609375 C-0.93171875 1.00238281 -0.4728125 0.50867187 0 0 Z " fill="#F8D9E0" transform="translate(119,52)"/>
<path d="M0 0 C0.66 0.66 1.32 1.32 2 2 C2.77988281 2.28746094 3.55976563 2.57492188 4.36328125 2.87109375 C7.38084189 4.16305675 8.95218178 5.68017826 11.1875 8.0625 C13.80417081 10.92137806 13.80417081 10.92137806 17 13 C17 13.99 17 14.98 17 16 C17.99 16.33 18.98 16.66 20 17 C20.391875 16.05125 20.78375 15.1025 21.1875 14.125 C23.31798976 10.45174179 24.17985125 10.4214507 28 9 C29.6228095 7.4875579 31.10032375 5.90287749 32.5703125 4.2421875 C34 3 34 3 37 3 C38.71875 4.64453125 38.71875 4.64453125 40.5 6.8125 C42.58277276 9.32004878 44.65488525 11.73353239 47 14 C45.75304528 17.74086417 43.80733432 19.25795253 41 22 C40.34 22.928125 39.68 23.85625 39 24.8125 C37 27 37 27 34.25 27.3125 C33.5075 27.209375 32.765 27.10625 32 27 C31.9175 27.73863281 31.835 28.47726563 31.75 29.23828125 C30.8387406 32.59380416 29.53397797 33.84809534 27 36.1875 C24.10148878 38.7956543 24.10148878 38.7956543 22 42 C20.68 42 19.36 42 18 42 C18 43.32 18 44.64 18 46 C17.34 46 16.68 46 16 46 C15.79375 45.443125 15.5875 44.88625 15.375 44.3125 C13.44999226 41.07498698 10.96149098 39.31768859 8 37 C8 37.99 8 38.98 8 40 C8.66 40 9.32 40 10 40 C10 40.99 10 41.98 10 43 C8.68 42.34 7.36 41.68 6 41 C6 39.02 6 37.04 6 35 C5.01 35 4.02 35 3 35 C2.67 36.32 2.34 37.64 2 39 C0.35 38.34 -1.3 37.68 -3 37 C-3 38.32 -3 39.64 -3 41 C-5.78480942 43.70745361 -8.12270528 45.42558597 -12 46 C-12 47.32 -12 48.64 -12 50 C-13.32 49.67 -14.64 49.34 -16 49 C-13.61656504 45.08435685 -12.07438716 42.97147766 -8 41 C-6.97388051 39.34928604 -5.97691857 37.68029994 -5 36 C-3.37163262 34.2958946 -1.71230248 32.61974559 0 31 C-1.75939964 27.18227361 -4.13980718 24.16545565 -6.7578125 20.90234375 C-8 19 -8 19 -8 16 C-9.32 16.33 -10.64 16.66 -12 17 C-12.33 15.68 -12.66 14.36 -13 13 C-12.01 12.67 -11.02 12.34 -10 12 C-10 11.34 -10 10.68 -10 10 C-9.34 10 -8.68 10 -8 10 C-7.79375 9.46375 -7.5875 8.9275 -7.375 8.375 C-5.42003056 4.9982346 -2.81776305 2.69525161 0 0 Z " fill="#F7CFD8" transform="translate(146,80)"/>
<path d="M0 0 C1.32 0.66 2.64 1.32 4 2 C3.67 4.31 3.34 6.62 3 9 C4.32 9.33 5.64 9.66 7 10 C7 9.01 7 8.02 7 7 C6.34 7 5.68 7 5 7 C5.33 6.01 5.66 5.02 6 4 C8.52709628 6.18678905 10.92608855 8.37232162 13 11 C12.9375 13.9375 12.9375 13.9375 12 16 C12.99 16.33 13.98 16.66 15 17 C15 15.68 15 14.36 15 13 C15.969375 12.731875 16.93875 12.46375 17.9375 12.1875 C18.948125 11.795625 19.95875 11.40375 21 11 C21.33 10.01 21.66 9.02 22 8 C22.66 8 23.32 8 24 8 C24 6.68 24 5.36 24 4 C27.875 4.875 27.875 4.875 29 6 C29.33 4.35 29.66 2.7 30 1 C31.32 1.33 32.64 1.66 34 2 C33.9071875 3.423125 33.9071875 3.423125 33.8125 4.875 C33.874375 5.90625 33.93625 6.9375 34 8 C34.99 8.66 35.98 9.32 37 10 C37 9.01 37 8.02 37 7 C36.34 7 35.68 7 35 7 C35 6.01 35 5.02 35 4 C39.05723077 5.35241026 40.49085419 7.60926242 43 11 C43 14 43 14 41.28515625 15.75390625 C40.18494141 16.64916016 40.18494141 16.64916016 39.0625 17.5625 C36.07351045 19.91285524 36.07351045 19.91285524 34 23 C31.8125 23.3125 31.8125 23.3125 29 23 C26.3125 20.5625 26.3125 20.5625 24 18 C23.34 17.67 22.68 17.34 22 17 C22 16.01 22 15.02 22 14 C21.01 14.495 21.01 14.495 20 15 C20.33 16.65 20.66 18.3 21 20 C21.66 20 22.32 20 23 20 C28 25.47619048 28 25.47619048 28 28 C25.47107279 30.73397536 23.10404867 32.93063422 20 35 C19.67 35.99 19.34 36.98 19 38 C16.9375 38.6875 16.9375 38.6875 15 39 C14.67 38.01 14.34 37.02 14 36 C12.67019674 35.65285136 11.33628584 35.32129277 10 35 C7.57462293 32.97249377 5.64341586 30.70111604 4 28 C4.125 25.0625 4.125 25.0625 5 23 C4.01 23 3.02 23 2 23 C1.67 22.01 1.34 21.02 1 20 C0.01 19.34 -0.98 18.68 -2 18 C-2.33 17.01 -2.66 16.02 -3 15 C-3.66 14.67 -4.32 14.34 -5 14 C-4.67 13.01 -4.34 12.02 -4 11 C-3.34 11 -2.68 11 -2 11 C-2 11.66 -2 12.32 -2 13 C-1.34 13 -0.68 13 0 13 C-0.26676204 11.01508358 -0.26676204 11.01508358 -1 9 C-1.99 8.67 -2.98 8.34 -4 8 C-4 7.34 -4 6.68 -4 6 C-3.01 6 -2.02 6 -1 6 C-1.020625 5.195625 -1.04125 4.39125 -1.0625 3.5625 C-1 1 -1 1 0 0 Z " fill="#F4D4DB" transform="translate(119,113)"/>
<path d="M0 0 C2 2 2 2 2.37109375 3.8671875 C3.23186067 6.78631009 4.84843167 8.07103184 7.0625 10.125 C8.40998507 11.38012669 9.73152782 12.66507028 11 14 C11 14.66 11 15.32 11 16 C11.99 16 12.98 16 14 16 C14.33 17.98 14.66 19.96 15 22 C13.68 22.33 12.36 22.66 11 23 C10.67 24.65 10.34 26.3 10 28 C9.01 28.33 8.02 28.66 7 29 C7.66 29.61875 8.32 30.2375 9 30.875 C11 33 11 33 11 35 C10.34 35 9.68 35 9 35 C9 34.34 9 33.68 9 33 C6.96758273 33.63979849 6.96758273 33.63979849 5 35 C4.18828772 37.55519921 4.18828772 37.55519921 4 40 C5.485 40.495 5.485 40.495 7 41 C6.67 41.66 6.34 42.32 6 43 C1.69308797 41.52334445 -0.19540381 40.04367695 -4 37 C-4 42.28 -4 47.56 -4 53 C-5.485 53.495 -5.485 53.495 -7 54 C-7 52.35 -7 50.7 -7 49 C-7.99 48.67 -8.98 48.34 -10 48 C-8.515 47.505 -8.515 47.505 -7 47 C-6.505 44.03 -6.505 44.03 -6 41 C-6.99 41.99 -7.98 42.98 -9 44 C-9.99 43.67 -10.98 43.34 -12 43 C-11.56495142 40.47671825 -11.29077075 39.26840377 -9.375 37.5 C-7.80001723 36.10846523 -7.80001723 36.10846523 -7.9375 34.125 C-9.57422217 30.85155565 -12.10785146 29.21526271 -15 27 C-15 27.66 -15 28.32 -15 29 C-14.34 29 -13.68 29 -13 29 C-13 29.99 -13 30.98 -13 32 C-13.99 31.67 -14.98 31.34 -16 31 C-16 29.02 -16 27.04 -16 25 C-14.68 25 -13.36 25 -12 25 C-12.53625 24.2575 -13.0725 23.515 -13.625 22.75 C-15 20 -15 20 -14.5625 18.0625 C-12.71857879 15.628524 -10.599155 13.63681199 -8.3984375 11.52734375 C-6.59076739 9.55304483 -5.75040807 7.55138742 -5 5 C-4.01 5 -3.02 5 -2 5 C-1.34 3.35 -0.68 1.7 0 0 Z " fill="#FDEDF0" transform="translate(108,60)"/>
<path d="M0 0 C2.31 0 4.62 0 7 0 C7 11.88 7 23.76 7 36 C4.69 36 2.38 36 0 36 C0 35.34 0 34.68 0 34 C-0.70125 34.495 -1.4025 34.99 -2.125 35.5 C-5.49395521 37.25771576 -7.25082097 37.54675527 -11 37 C-14.4917107 34.77800228 -16.49500071 32.83211273 -18 29 C-18.61250946 24.00965973 -19.20785096 18.46958374 -16.94921875 13.8515625 C-15.2080313 11.74570157 -13.44726923 10.22363461 -11 9 C-5.21006565 8.63238512 -5.21006565 8.63238512 -3 9 C-2.01 9.99 -1.02 10.98 0 12 C0 8.04 0 4.08 0 0 Z " fill="#7E7E81" transform="translate(117,165)"/>
<path d="M0 0 C4.50800038 1.12700009 6.36577388 3.23681982 9 7 C10 9 10 9 10 16 C3.73 16 -2.54 16 -9 16 C-8.01 17.65 -7.02 19.3 -6 21 C-2.95746492 21.58345476 -2.95746492 21.58345476 0 21 C0.66 20.34 1.32 19.68 2 19 C5.625 18.875 5.625 18.875 9 19 C8.4200756 22.91448973 6.75267784 25.20167244 4 28 C-0.38434945 28.95190218 -4.58122897 28.70655476 -9 28 C-12.55699134 25.48918258 -14.35167169 22.96584974 -16 19 C-16.74046863 13.33346638 -17.16149651 8.56958988 -13.6875 3.875 C-8.83517684 0.48965826 -5.89932968 -0.54366372 0 0 Z " fill="#828184" transform="translate(142,174)"/>
<path d="M0 0 C3.43780021 1.7083547 5.48478797 4.08666958 7.375 7.4375 C8 10 8 10 8 16 C1.73 16 -4.54 16 -11 16 C-10.24849977 19.27773504 -10.24849977 19.27773504 -7 21 C-4.45792029 21.33343551 -4.45792029 21.33343551 -2 21 C-1.34 20.34 -0.68 19.68 0 19 C3.625 18.875 3.625 18.875 7 19 C5.82596494 22.34148439 4.84565166 24.81103718 2 27 C-1.72343425 28.5169547 -6.05959654 28.68199291 -10 28 C-13.81046472 25.91092943 -16.40687471 23.03737231 -18 19 C-18.55633477 14.15193986 -18.61847647 9.56246688 -16.8125 5 C-12.02516716 -0.28257417 -6.90044051 -1.18135542 0 0 Z " fill="#868587" transform="translate(186,174)"/>
<path d="M0 0 C0.66 0 1.32 0 2 0 C2 0.99 2 1.98 2 3 C2.66 3.33 3.32 3.66 4 4 C4 4.66 4 5.32 4 6 C4.66 6.33 5.32 6.66 6 7 C6.33 7.99 6.66 8.98 7 10 C7.99 10.33 8.98 10.66 10 11 C10.6875 13.0625 10.6875 13.0625 11 15 C12.32 14.34 13.64 13.68 15 13 C15.66 14.98 16.32 16.96 17 19 C16.01 19.495 16.01 19.495 15 20 C15 19.34 15 18.68 15 18 C14.34 18 13.68 18 13 18 C12.67 18.66 12.34 19.32 12 20 C11.67 19.34 11.34 18.68 11 18 C10.27683594 18.84884766 10.27683594 18.84884766 9.5390625 19.71484375 C8.90742187 20.44832031 8.27578125 21.18179688 7.625 21.9375 C6.99851562 22.66839844 6.37203125 23.39929688 5.7265625 24.15234375 C4 26 4 26 2 27 C-0.1640625 26.66015625 -0.1640625 26.66015625 -2.625 26.0625 C-3.44226563 25.86785156 -4.25953125 25.67320313 -5.1015625 25.47265625 C-5.72804688 25.31667969 -6.35453125 25.16070312 -7 25 C-7 25.66 -7 26.32 -7 27 C-6.01 27.33 -5.02 27.66 -4 28 C-4 29.32 -4 30.64 -4 32 C-5.32 32 -6.64 32 -8 32 C-8 30.68 -8 29.36 -8 28 C-8.5775 27.9175 -9.155 27.835 -9.75 27.75 C-12.6539336 26.78202213 -14.03740604 25.31305716 -16 23 C-16 22.34 -16 21.68 -16 21 C-16.66 21 -17.32 21 -18 21 C-18 18 -18 18 -16.125 15.8125 C-14 14 -14 14 -12 14 C-11.34 12.68 -10.68 11.36 -10 10 C-9.34 10 -8.68 10 -8 10 C-7.67 9.01 -7.34 8.02 -7 7 C-5.35 7.33 -3.7 7.66 -2 8 C-2.33 6.35 -2.66 4.7 -3 3 C-2.34 3 -1.68 3 -1 3 C-0.67 2.01 -0.34 1.02 0 0 Z " fill="#FCECEF" transform="translate(80,90)"/>
<path d="M0 0 C0.99 0.33 1.98 0.66 3 1 C3.1953125 3.05078125 3.390625 5.1015625 3.5859375 7.15234375 C3.72257812 7.76207031 3.85921875 8.37179688 4 9 C4.66 9.33 5.32 9.66 6 10 C6 9.01 6 8.02 6 7 C5.34 7 4.68 7 4 7 C4 6.34 4 5.68 4 5 C7.35915158 6.43963639 9.71624938 8.12416589 12 11 C11.89642766 14.41788723 10.30966753 15.69033247 8 18 C8 18.99 8 19.98 8 21 C8.66 21.33 9.32 21.66 10 22 C10.33 21.01 10.66 20.02 11 19 C11.66 19 12.32 19 13 19 C12.625 21.9375 12.625 21.9375 12 25 C11.34 25.33 10.68 25.66 10 26 C10.66 26.33 11.32 26.66 12 27 C12 28.65 12 30.3 12 32 C12.66 31.67 13.32 31.34 14 31 C14.31241455 28.28553021 14.51336592 25.66090639 14.625 22.9375 C14.66367188 22.17888672 14.70234375 21.42027344 14.7421875 20.63867188 C14.83673562 18.75952805 14.91946756 16.87979664 15 15 C15.99 15.33 16.98 15.66 18 16 C18 16.66 18 17.32 18 18 C18.66 18 19.32 18 20 18 C19.67 19.32 19.34 20.64 19 22 C19.99 21.67 20.98 21.34 22 21 C25.1875 23.25 25.1875 23.25 28 26 C28 26.99 28 27.98 28 29 C27.01 29 26.02 29 25 29 C24.34 30.32 23.68 31.64 23 33 C21.7922442 29.37673261 22.45688872 28.35853631 24 25 C23.34 25 22.68 25 22 25 C22 25.66 22 26.32 22 27 C21.01 27 20.02 27 19 27 C19 27.99 19 28.98 19 30 C18.34 30 17.68 30 17 30 C17 30.66 17 31.32 17 32 C18.485 32.495 18.485 32.495 20 33 C19.01 34.98 18.02 36.96 17 39 C16.34 39 15.68 39 15 39 C15 38.01 15 37.02 15 36 C14.2575 35.9175 13.515 35.835 12.75 35.75 C9.45697405 34.85190201 8.14023212 33.61583926 6 31 C6 30.34 6 29.68 6 29 C5.34 29 4.68 29 4 29 C4 28.01 4 27.02 4 26 C4.99 26 5.98 26 7 26 C6.34 24.68 5.68 23.36 5 22 C3.02 22.99 3.02 22.99 1 24 C1 22.35 1 20.7 1 19 C-0.32 18.67 -1.64 18.34 -3 18 C-3 17.01 -3 16.02 -3 15 C-3.99 14.67 -4.98 14.34 -6 14 C-5.67 13.01 -5.34 12.02 -5 11 C-4.01 10.67 -3.02 10.34 -2 10 C-3.32 8.68 -4.64 7.36 -6 6 C-4.68 6 -3.36 6 -2 6 C-1.855625 5.195625 -1.71125 4.39125 -1.5625 3.5625 C-1 1 -1 1 0 0 Z " fill="#D390A0" transform="translate(89,82)"/>
<path d="M0 0 C1.28197266 -0.03867188 1.28197266 -0.03867188 2.58984375 -0.078125 C5.57613302 0.31815983 6.89917544 1.18434247 9.0625 3.25 C9.8125 5.9375 9.8125 5.9375 10.0625 8.25 C4.4375 8.5 4.4375 8.5 1.0625 6.25 C-1.56281524 6.08286431 -1.56281524 6.08286431 -3.9375 6.25 C-4.2675 7.24 -4.5975 8.23 -4.9375 9.25 C-4.20144531 9.34796875 -3.46539062 9.4459375 -2.70703125 9.546875 C7.86185078 11.16641307 7.86185078 11.16641307 11.0625 15.25 C11.6875 18.6875 11.6875 18.6875 11.0625 22.25 C8.52112841 25.40954305 6.91627341 26.96540886 3.0625 28.25 C-1.71575326 28.6416601 -4.03941565 28.69087777 -8.375 26.5625 C-11.15817989 24.05084985 -11.73320164 22.9273705 -11.9375 19.25 C-9.6275 19.25 -7.3175 19.25 -4.9375 19.25 C-4.6075 19.91 -4.2775 20.57 -3.9375 21.25 C-2.04216658 21.71523063 -2.04216658 21.71523063 0.125 21.875 C1.424375 21.99875 2.72375 22.1225 4.0625 22.25 C4.0625 20.93 4.0625 19.61 4.0625 18.25 C3.14726563 18.04503906 2.23203125 17.84007812 1.2890625 17.62890625 C-0.49371094 17.22478516 -0.49371094 17.22478516 -2.3125 16.8125 C-3.49585937 16.54566406 -4.67921875 16.27882812 -5.8984375 16.00390625 C-8.9375 15.25 -8.9375 15.25 -10.9375 14.25 C-11.01871924 12.64667209 -11.07679134 11.04215974 -11.125 9.4375 C-11.15980469 8.54417969 -11.19460937 7.65085938 -11.23046875 6.73046875 C-10.9375 4.25 -10.9375 4.25 -9.61328125 2.48828125 C-6.56297358 0.2343243 -3.66930481 0.06621302 0 0 Z " fill="#7A797D" transform="translate(84.9375,173.75)"/>
<path d="M0 0 C0 1.98 0 3.96 0 6 C-1.32 6 -2.64 6 -4 6 C-4 7.32 -4 8.64 -4 10 C-2.68 10 -1.36 10 0 10 C0 11.65 0 13.3 0 15 C-1.32 15 -2.64 15 -4 15 C-4 21.93 -4 28.86 -4 36 C-6.31 36 -8.62 36 -11 36 C-11 29.07 -11 22.14 -11 15 C-12.32 15 -13.64 15 -15 15 C-15 13.35 -15 11.7 -15 10 C-13.68 10 -12.36 10 -11 10 C-11.061875 8.906875 -11.12375 7.81375 -11.1875 6.6875 C-11 3 -11 3 -10 1.0625 C-6.73357754 -0.67278693 -3.65648548 -0.17982715 0 0 Z " fill="#88888A" transform="translate(167,165)"/>
<path d="M0 0 C4.15863984 1.84143162 6.13136866 4.48592661 9 8 C11.16220617 9.8126505 11.16220617 9.8126505 13 11 C11.46356148 14.68069887 9.21849055 16.98775204 6.375 19.75 C5.55773437 20.54921875 4.74046875 21.3484375 3.8984375 22.171875 C3.27195312 22.77515625 2.64546875 23.3784375 2 24 C-1.68069887 22.46356148 -3.98775204 20.21849055 -6.75 17.375 C-7.54921875 16.55773437 -8.3484375 15.74046875 -9.171875 14.8984375 C-9.77515625 14.27195312 -10.3784375 13.64546875 -11 13 C-9.46356148 9.31930113 -7.21849055 7.01224796 -4.375 4.25 C-3.55773437 3.45078125 -2.74046875 2.6515625 -1.8984375 1.828125 C-0.95871094 0.92320313 -0.95871094 0.92320313 0 0 Z " fill="#D9032F" transform="translate(104,67)"/>
<path d="M0 0 C4.01268958 0.54424985 5.98416846 2.52072201 8.8125 5.3125 C9.62332031 6.09238281 10.43414062 6.87226562 11.26953125 7.67578125 C13 10 13 10 13.03125 11.9921875 C11.62848027 14.72333765 9.84294978 16.62882829 7.6875 18.8125 C6.90761719 19.62332031 6.12773437 20.43414062 5.32421875 21.26953125 C3 23 3 23 1.0078125 23.03125 C-1.72333765 21.62848027 -3.62882829 19.84294978 -5.8125 17.6875 C-6.62332031 16.90761719 -7.43414062 16.12773438 -8.26953125 15.32421875 C-10 13 -10 13 -10.01171875 10.93359375 C-8.71781188 8.46068294 -7.16420893 7.1295551 -5 5.375 C-2.04427685 3.05444701 -2.04427685 3.05444701 0 0 Z " fill="#D50430" transform="translate(149,83)"/>
<path d="M0 0 C3.68069887 1.53643852 5.98775204 3.78150945 8.75 6.625 C9.54921875 7.44226562 10.3484375 8.25953125 11.171875 9.1015625 C11.77515625 9.72804688 12.3784375 10.35453125 13 11 C11.53374144 14.34820898 9.66341553 16.69266359 7.125 19.3125 C6.44695312 20.03050781 5.76890625 20.74851562 5.0703125 21.48828125 C3 23 3 23 1.04296875 23 C-1.73540324 21.64003207 -3.6132365 19.85834006 -5.8125 17.6875 C-6.62332031 16.90761719 -7.43414062 16.12773438 -8.26953125 15.32421875 C-10 13 -10 13 -10.046875 11.00390625 C-8.60175704 8.23769166 -6.68722185 6.40466318 -4.4375 4.25 C-3.61121094 3.45078125 -2.78492187 2.6515625 -1.93359375 1.828125 C-1.29550781 1.22484375 -0.65742187 0.6215625 0 0 Z " fill="#D8022F" transform="translate(119,52)"/>
<path d="M0 0 C1.71875 1.64453125 1.71875 1.64453125 3.5 3.8125 C5.58277276 6.32004878 7.65488525 8.73353239 10 11 C8.75120909 14.74637273 6.84204893 16.29013939 4 19 C3.319375 19.78375 2.63875 20.5675 1.9375 21.375 C0 23 0 23 -1.8203125 22.87109375 C-4.78538267 21.68612843 -6.54595752 19.92474952 -8.8125 17.6875 C-9.62332031 16.90761719 -10.43414062 16.12773438 -11.26953125 15.32421875 C-13 13 -13 13 -13.03515625 11.00390625 C-11.62461257 8.2733066 -9.80661961 6.41043884 -7.625 4.25 C-6.83351562 3.45078125 -6.04203125 2.6515625 -5.2265625 1.828125 C-3 0 -3 0 0 0 Z " fill="#D00D36" transform="translate(183,83)"/>
<path d="M0 0 C1.62109375 1.64453125 1.62109375 1.64453125 3.4375 3.8125 C5.54463676 6.31102718 7.65241398 8.7242056 10 11 C8.46356148 14.68069887 6.21849055 16.98775204 3.375 19.75 C2.55773437 20.54921875 1.74046875 21.3484375 0.8984375 22.171875 C0.27195313 22.77515625 -0.35453125 23.3784375 -1 24 C-5.18423892 20.49102731 -9.19588166 16.91939465 -13 13 C-11.46781315 9.36938333 -9.2816856 7.0136227 -6.5 4.25 C-5.7059375 3.45078125 -4.911875 2.6515625 -4.09375 1.828125 C-2 0 -2 0 0 0 Z " fill="#DA0230" transform="translate(137,98)"/>
<path d="M0 0 C3.00082999 1.20685554 4.67893939 3.10411318 6.90625 5.4296875 C7.70546875 6.25597656 8.5046875 7.08226563 9.328125 7.93359375 C9.93140625 8.57167969 10.5346875 9.20976563 11.15625 9.8671875 C9.68999144 13.21539648 7.81966553 15.55985109 5.28125 18.1796875 C4.60320312 18.89769531 3.92515625 19.61570312 3.2265625 20.35546875 C1.15625 21.8671875 1.15625 21.8671875 -0.8046875 21.8828125 C-3.6190745 20.48101055 -5.42392522 18.57023984 -7.59375 16.3046875 C-8.79257813 15.06525391 -8.79257813 15.06525391 -10.015625 13.80078125 C-10.61890625 13.16269531 -11.2221875 12.52460937 -11.84375 11.8671875 C-10.109375 7.03125 -10.109375 7.03125 -7.71875 5.5546875 C-6.790625 5.214375 -6.790625 5.214375 -5.84375 4.8671875 C-5.84375 4.2071875 -5.84375 3.5471875 -5.84375 2.8671875 C-2.6708528 -0.19239194 -2.6708528 -0.19239194 0 0 Z " fill="#CF0D37" transform="translate(166.84375,99.1328125)"/>
<path d="M0 0 C3.34820898 1.46625856 5.69266359 3.33658447 8.3125 5.875 C9.03050781 6.55304687 9.74851563 7.23109375 10.48828125 7.9296875 C12 10 12 10 12.015625 11.9609375 C10.61382305 14.7753245 8.70305234 16.58017522 6.4375 18.75 C5.61121094 19.54921875 4.78492188 20.3484375 3.93359375 21.171875 C3.29550781 21.77515625 2.65742188 22.3784375 2 23 C-1.13659662 21.57298983 -3.62380533 19.85240215 -6.25 17.625 C-6.95640625 17.03976563 -7.6628125 16.45453125 -8.390625 15.8515625 C-10 14 -10 14 -10 10 C-7.8125 7.421875 -7.8125 7.421875 -5 4.75 C-4.071875 3.85796875 -3.14375 2.9659375 -2.1875 2.046875 C-1.465625 1.37140625 -0.74375 0.6959375 0 0 Z " fill="#CF0935" transform="translate(150,52)"/>
<path d="M0 0 C2.814387 1.40180195 4.61923772 3.31257266 6.7890625 5.578125 C7.58828125 6.40441406 8.3875 7.23070313 9.2109375 8.08203125 C9.81421875 8.72011719 10.4175 9.35820313 11.0390625 10.015625 C9.61307542 13.17266106 7.8761491 15.59591068 5.6015625 18.203125 C4.70630859 19.24533203 4.70630859 19.24533203 3.79296875 20.30859375 C2.0390625 22.015625 2.0390625 22.015625 -0.9609375 23.015625 C-4.5909375 19.385625 -8.2209375 15.755625 -11.9609375 12.015625 C-10.19249725 8.4787445 -8.77843296 6.48198353 -6.0859375 3.703125 C-5.06886719 2.62611328 -5.06886719 2.62611328 -4.03125 1.52734375 C-1.9609375 0.015625 -1.9609375 0.015625 0 0 Z " fill="#D50431" transform="translate(135.9609375,67.984375)"/>
<path d="M0 0 C2.31 0 4.62 0 7 0 C7 11.88 7 23.76 7 36 C4.69 36 2.38 36 0 36 C0 24.12 0 12.24 0 0 Z " fill="#7E7E81" transform="translate(62,165)"/>
<path d="M0 0 C1.32 0.33 2.64 0.66 4 1 C1.69 3.31 -0.62 5.62 -3 8 C-1.76748533 11.69754402 0.00873677 12.62232923 3 15 C3 15.66 3 16.32 3 17 C5.65915095 18.47158931 5.65915095 18.47158931 9 19 C11.43516865 17.62336186 12.99438292 16.00561708 15 14 C14.34 16.31 13.68 18.62 13 21 C7.25 22.125 7.25 22.125 5 21 C4.67 22.32 4.34 23.64 4 25 C3.52949219 24.45730469 3.05898437 23.91460937 2.57421875 23.35546875 C1.95160156 22.64003906 1.32898438 21.92460938 0.6875 21.1875 C-0.23482422 20.12595703 -0.23482422 20.12595703 -1.17578125 19.04296875 C-1.77777344 18.36878906 -2.37976563 17.69460937 -3 17 C-3.48855469 16.39800781 -3.97710937 15.79601562 -4.48046875 15.17578125 C-5.9383382 13.78059361 -5.9383382 13.78059361 -7.953125 14.12109375 C-10.30086188 15.12918688 -11.85709531 16.35160537 -13.75 18.0625 C-14.36359375 18.61035156 -14.9771875 19.15820312 -15.609375 19.72265625 C-16.29773438 20.35494141 -16.29773438 20.35494141 -17 21 C-17.66 20.67 -18.32 20.34 -19 20 C-18.42424336 16.64749299 -17.40693737 15.06181371 -14.9375 12.75 C-14.38964844 12.22921875 -13.84179688 11.7084375 -13.27734375 11.171875 C-12.64505859 10.59179688 -12.64505859 10.59179688 -12 10 C-13.37154504 7.04590299 -14.98863724 4.55991624 -17 2 C-14.125 1.375 -14.125 1.375 -11 1 C-9 3 -9 3 -8 6 C-5.98491642 6.73323796 -5.98491642 6.73323796 -4 7 C-3.71125 6.401875 -3.4225 5.80375 -3.125 5.1875 C-2 3 -2 3 0 0 Z " fill="#FCEAEE" transform="translate(143,55)"/>
<path d="M0 0 C0.99 0.33 1.98 0.66 3 1 C3 3.64 3 6.28 3 9 C4.32 9.33 5.64 9.66 7 10 C6.34 8.35 5.68 6.7 5 5 C8.36295835 6.44126786 10.62927102 8.20592655 13 11 C13 14 13 14 11.35546875 15.75390625 C10.64003906 16.35074219 9.92460937 16.94757813 9.1875 17.5625 C8.12595703 18.46162109 8.12595703 18.46162109 7.04296875 19.37890625 C5 21 5 21 2 23 C1.67 22.01 1.34 21.02 1 20 C0.01 19.67 -0.98 19.34 -2 19 C-2 17.68 -2 16.36 -2 15 C-2.99 15 -3.98 15 -5 15 C-5 15.66 -5 16.32 -5 17 C-5.66 17 -6.32 17 -7 17 C-7 15.02 -7 13.04 -7 11 C-5.35 11 -3.7 11 -2 11 C-2 11.66 -2 12.32 -2 13 C-1.34 13 -0.68 13 0 13 C-1.65 10.69 -3.3 8.38 -5 6 C-3.68 6 -2.36 6 -1 6 C-1.020625 5.195625 -1.04125 4.39125 -1.0625 3.5625 C-1 1 -1 1 0 0 Z " fill="#C23557" transform="translate(119,82)"/>
<path d="M0 0 C0.99 0.33 1.98 0.66 3 1 C3.1953125 3.05078125 3.390625 5.1015625 3.5859375 7.15234375 C3.72257812 7.76207031 3.85921875 8.37179688 4 9 C4.66 9.33 5.32 9.66 6 10 C6 9.01 6 8.02 6 7 C5.34 7 4.68 7 4 7 C4 6.34 4 5.68 4 5 C7.35915158 6.43963639 9.71624938 8.12416589 12 11 C11.75798906 13.55913695 11.258027 14.72940245 9.4765625 16.59765625 C8.86554688 17.08105469 8.25453125 17.56445312 7.625 18.0625 C5.28125058 19.94248624 3.09045486 21.83900832 1 24 C1 22.35 1 20.7 1 19 C-0.32 18.67 -1.64 18.34 -3 18 C-3 17.01 -3 16.02 -3 15 C-3.99 14.67 -4.98 14.34 -6 14 C-5.67 13.01 -5.34 12.02 -5 11 C-4.01 10.67 -3.02 10.34 -2 10 C-3.32 8.68 -4.64 7.36 -6 6 C-4.68 6 -3.36 6 -2 6 C-1.855625 5.195625 -1.71125 4.39125 -1.5625 3.5625 C-1 1 -1 1 0 0 Z " fill="#C62A4E" transform="translate(89,82)"/>
<path d="M0 0 C1.65 0 3.3 0 5 0 C5 10.89 5 21.78 5 33 C3.35 33 1.7 33 0 33 C0 32.34 0 31.68 0 31 C-0.99 31 -1.98 31 -3 31 C-2.835 30.32453125 -2.67 29.6490625 -2.5 28.953125 C-1.91496645 25.49777057 -1.94138026 22.25252938 -2 18.75 C-2.03733926 16.50030985 -2.04711009 14.24950675 -2 12 C-1.67 11.67 -1.34 11.34 -1 11 C-0.76636119 9.15108054 -0.58696365 7.29511969 -0.4375 5.4375 C-0.35371094 4.42558594 -0.26992187 3.41367188 -0.18359375 2.37109375 C-0.12300781 1.58863281 -0.06242187 0.80617187 0 0 Z " fill="#78777B" transform="translate(118,167)"/>
<path d="M0 0 C1.32 0.66 2.64 1.32 4 2 C3.67 4.31 3.34 6.62 3 9 C4.32 9.33 5.64 9.66 7 10 C7 9.01 7 8.02 7 7 C6.34 7 5.68 7 5 7 C5.33 6.01 5.66 5.02 6 4 C8.31 6.31 10.62 8.62 13 11 C11.16614077 14.66771845 9.74937171 16.46834996 6.875 19.25 C6.15054688 19.95640625 5.42609375 20.6628125 4.6796875 21.390625 C4.12539062 21.92171875 3.57109375 22.4528125 3 23 C-1.875 18.375 -1.875 18.375 -3 15 C-3.66 14.67 -4.32 14.34 -5 14 C-4.67 13.01 -4.34 12.02 -4 11 C-3.34 11 -2.68 11 -2 11 C-2 11.66 -2 12.32 -2 13 C-1.34 13 -0.68 13 0 13 C-0.26676204 11.01508358 -0.26676204 11.01508358 -1 9 C-1.99 8.67 -2.98 8.34 -4 8 C-4 7.34 -4 6.68 -4 6 C-3.01 6 -2.02 6 -1 6 C-1.020625 5.195625 -1.04125 4.39125 -1.0625 3.5625 C-1 1 -1 1 0 0 Z " fill="#CD0834" transform="translate(119,113)"/>
<path d="M0 0 C1.32 0.33 2.64 0.66 4 1 C3.938125 1.94875 3.87625 2.8975 3.8125 3.875 C3.874375 4.90625 3.93625 5.9375 4 7 C4.99 7.66 5.98 8.32 7 9 C7 8.01 7 7.02 7 6 C6.34 6 5.68 6 5 6 C5 5.01 5 4.02 5 3 C9.05723077 4.35241026 10.49085419 6.60926242 13 10 C13 13 13 13 11.3203125 14.7890625 C10.59585938 15.39492187 9.87140625 16.00078125 9.125 16.625 C8.40570313 17.23601562 7.68640625 17.84703125 6.9453125 18.4765625 C5 20 5 20 3 21 C2.67 20.34 2.34 19.68 2 19 C-0.01669827 17.86649466 -0.01669827 17.86649466 -2 17 C-2 15.68 -2 14.36 -2 13 C-2.99 13 -3.98 13 -5 13 C-4.67 12.01 -4.34 11.02 -4 10 C-3.34 10 -2.68 10 -2 10 C-2 10.66 -2 11.32 -2 12 C-1.34 12 -0.68 12 0 12 C-1.29299694 9.11562221 -2.65941363 7.12780579 -5 5 C-4.34 4.67 -3.68 4.34 -3 4 C-2.34 4.33 -1.68 4.66 -1 5 C-0.67 3.35 -0.34 1.7 0 0 Z " fill="#C70D36" transform="translate(149,114)"/>
<path d="M0 0 C0.66 0.33 1.32 0.66 2 1 C2 1.66 2 2.32 2 3 C2.66 3 3.32 3 4 3 C4.33 3.99 4.66 4.98 5 6 C6.3153341 6.70151152 7.65117592 7.36525925 9 8 C10.75 9.5 10.75 9.5 12 11 C12 13 12 13 10 15.125 C9.34 15.74375 8.68 16.3625 8 17 C7.34 16.67 6.68 16.34 6 16 C6 15.01 6 14.02 6 13 C4.68 14.32 3.36 15.64 2 17 C2.66 17 3.32 17 4 17 C3.67 18.98 3.34 20.96 3 23 C1.68 23.33 0.36 23.66 -1 24 C-0.125 20.125 -0.125 20.125 1 19 C0.34 18.67 -0.32 18.34 -1 18 C-1 18.66 -1 19.32 -1 20 C-2.32 20.33 -3.64 20.66 -5 21 C-9 16.25 -9 16.25 -9 14 C-8.34 14 -7.68 14 -7 14 C-7 13.01 -7 12.02 -7 11 C-7.66 11 -8.32 11 -9 11 C-9 10.01 -9 9.02 -9 8 C-7.68 8 -6.36 8 -5 8 C-5 6.68 -5 5.36 -5 4 C-4.34 4 -3.68 4 -3 4 C-3.33 5.98 -3.66 7.96 -4 10 C-4.66 10 -5.32 10 -6 10 C-6 10.66 -6 11.32 -6 12 C-5.34 12 -4.68 12 -4 12 C-3.67 13.65 -3.34 15.3 -3 17 C-1.25314692 13.17254549 -0.65113667 9.87557277 -0.375 5.6875 C-0.30023438 4.61886719 -0.22546875 3.55023438 -0.1484375 2.44921875 C-0.09945312 1.64097656 -0.05046875 0.83273438 0 0 Z " fill="#BA3251" transform="translate(104,128)"/>
<path d="M0 0 C5.2860826 2.69486564 8.57467775 5.12151073 12 10 C12 10.99 12 11.98 12 13 C9 15.1875 9 15.1875 6 17 C6.33 14.69 6.66 12.38 7 10 C5.68 10.33 4.36 10.66 3 11 C3 11.66 3 12.32 3 13 C2.34 13 1.68 13 1 13 C1 13.99 1 14.98 1 16 C1.99 16 2.98 16 4 16 C4 16.66 4 17.32 4 18 C2.35 17.67 0.7 17.34 -1 17 C-1 17.66 -1 18.32 -1 19 C-0.01 19.33 0.98 19.66 2 20 C2 21.32 2 22.64 2 24 C0.68 24 -0.64 24 -2 24 C-2 22.68 -2 21.36 -2 20 C-2.598125 19.896875 -3.19625 19.79375 -3.8125 19.6875 C-6.28243264 18.91123545 -7.32251235 17.92911079 -9 16 C-8.67 15.34 -8.34 14.68 -8 14 C-7.34 14.33 -6.68 14.66 -6 15 C-6.33 13.68 -6.66 12.36 -7 11 C-6.01 11 -5.02 11 -4 11 C-4 12.65 -4 14.3 -4 16 C-3.34 15.67 -2.68 15.34 -2 15 C-2.04125 14.195625 -2.0825 13.39125 -2.125 12.5625 C-1.9720219 8.20262407 -1.05024765 4.21974503 0 0 Z " fill="#C76078" transform="translate(74,98)"/>
<path d="M0 0 C6.75 0.75 6.75 0.75 9 3 C9.3359375 5.27734375 9.3359375 5.27734375 9.375 7.9375 C9.40335938 8.81277344 9.43171875 9.68804687 9.4609375 10.58984375 C9 13 9 13 7.1484375 14.8046875 C4.58189579 16.23261798 2.89330934 16.24110911 0 16 C-1.70754834 13.02534237 -2.27317355 10.86139168 -2.25 7.4375 C-2.25773437 6.29087891 -2.25773437 6.29087891 -2.265625 5.12109375 C-2 3 -2 3 0 0 Z " fill="#F2F2F2" transform="translate(108,180)"/>
<path d="M0 0 C3.125 0.25 3.125 0.25 5 1.625 C6.125 3.25 6.125 3.25 6.125 5.25 C5.465 5.25 4.805 5.25 4.125 5.25 C4.125 4.59 4.125 3.93 4.125 3.25 C3.135 4.24 2.145 5.23 1.125 6.25 C2.115 6.58 3.105 6.91 4.125 7.25 C4.455 8.24 4.785 9.23 5.125 10.25 C6.115 10.91 7.105 11.57 8.125 12.25 C8.8125 14.375 8.8125 14.375 9.125 16.25 C6.815 16.91 4.505 17.57 2.125 18.25 C1.5475 17.610625 0.97 16.97125 0.375 16.3125 C-1.85562401 14.26776132 -2.94936391 13.66794801 -5.875 13.25 C-4.885 10.94 -3.895 8.63 -2.875 6.25 C-3.535 6.25 -4.195 6.25 -4.875 6.25 C-3.81271234 0.3315402 -3.81271234 0.3315402 0 0 Z " fill="#F4D2D9" transform="translate(112.875,120.75)"/>
<path d="M0 0 C0 0.66 0 1.32 0 2 C1.32 2.33 2.64 2.66 4 3 C3.01 3.66 2.02 4.32 1 5 C-0.2188121 8.55672179 -0.2188121 8.55672179 -1 12 C-0.34 12 0.32 12 1 12 C1 13.32 1 14.64 1 16 C-5.31619537 16.48586118 -5.31619537 16.48586118 -8.375 14.3125 C-10.20245754 11.71188735 -10.92047734 10.18090632 -11 7 C-9.6875 4.6875 -9.6875 4.6875 -8 3 C-7.34 3 -6.68 3 -6 3 C-6 2.34 -6 1.68 -6 1 C-4 0 -4 0 0 0 Z " fill="#D70331" transform="translate(168,102)"/>
<path d="M0 0 C0.66 1.32 1.32 2.64 2 4 C1.01 4.495 1.01 4.495 0 5 C-0.66 4.67 -1.32 4.34 -2 4 C-2 5.98 -2 7.96 -2 10 C0.31 10.33 2.62 10.66 5 11 C5.33 10.34 5.66 9.68 6 9 C6.99 8.360625 7.98 7.72125 9 7.0625 C12.24243221 5.27704115 12.24243221 5.27704115 13 2 C14.32 3.32 15.64 4.64 17 6 C15.57401292 9.15703606 13.8370866 11.58028568 11.5625 14.1875 C10.66724609 15.22970703 10.66724609 15.22970703 9.75390625 16.29296875 C8 18 8 18 5 19 C1.37 15.37 -2.26 11.74 -6 8 C-4.21844267 4.43688534 -2.83236991 2.64354525 0 0 Z " fill="#CC0D39" transform="translate(130,72)"/>
<path d="M0 0 C3.47369774 2.94000294 3.6449471 5.39980912 4.015625 9.76953125 C3.99619119 12.54370784 3.32952915 14.57556449 2 17 C3.98 16.34 5.96 15.68 8 15 C7.67 13.68 7.34 12.36 7 11 C6.01 11.495 6.01 11.495 5 12 C5 10.02 5 8.04 5 6 C7.86697492 7.28519565 9.97607712 8.57129254 12 11 C12 13 12 13 9.6875 15.5 C7 18 7 18 4 20 C3.67 20.99 3.34 21.98 3 23 C0.9375 23.6875 0.9375 23.6875 -1 24 C-1 22.68 -1 21.36 -1 20 C-1.66 20 -2.32 20 -3 20 C-2.86722656 19.39414063 -2.73445312 18.78828125 -2.59765625 18.1640625 C-1.32432636 12.12271632 -0.49744596 6.15262108 0 0 Z " fill="#D18C9B" transform="translate(135,128)"/>
<path d="M0 0 C10.37688442 -0.35175879 10.37688442 -0.35175879 14.8125 3.625 C15.204375 4.07875 15.59625 4.5325 16 5 C15.67 5.66 15.34 6.32 15 7 C14.34 6.67 13.68 6.34 13 6 C12.34 7.98 11.68 9.96 11 12 C7.04 12 3.08 12 -1 12 C0 7 0 7 2 5 C3.32 5 4.64 5 6 5 C6.33 3.68 6.66 2.36 7 1 C4.69 1 2.38 1 0 1 C0 0.67 0 0.34 0 0 Z " fill="#8B8A8C" transform="translate(134,174)"/>
<path d="M0 0 C2 2 2 2 2.37109375 3.8671875 C3.23186067 6.78631009 4.84843167 8.07103184 7.0625 10.125 C8.40998507 11.38012669 9.73152782 12.66507028 11 14 C11 14.66 11 15.32 11 16 C11.99 16 12.98 16 14 16 C14.33 17.98 14.66 19.96 15 22 C13.02 22.33 11.04 22.66 9 23 C8.814375 22.13375 8.62875 21.2675 8.4375 20.375 C6.77842886 16.4797895 4.94309087 14.92233472 1.65625 12.39453125 C0 11 0 11 -2 8 C-3.32 8.33 -4.64 8.66 -6 9 C-5.67 7.68 -5.34 6.36 -5 5 C-4.01 5 -3.02 5 -2 5 C-1.34 3.35 -0.68 1.7 0 0 Z " fill="#F9D1D9" transform="translate(108,60)"/>
<path d="M0 0 C4.15863984 1.84143162 6.13136866 4.48592661 9 8 C11.16220617 9.8126505 11.16220617 9.8126505 13 11 C11.63016497 14.16115776 11.0109362 14.9927092 8 17 C8.04125 16.0925 8.0825 15.185 8.125 14.25 C8.00289889 11.07537105 7.93569498 9.48875069 6 7 C3.12956075 5.94246975 1.69777288 5.69215902 -1.125 6.9375 C-1.74375 7.288125 -2.3625 7.63875 -3 8 C-3.99 8 -4.98 8 -6 8 C-6.33 9.98 -6.66 11.96 -7 14 C-6.01 14 -5.02 14 -4 14 C-4 13.34 -4 12.68 -4 12 C-3.01 12.33 -2.02 12.66 -1 13 C-1.52268466 15.76276177 -2.10869587 18.3260876 -3 21 C-5.64 18.36 -8.28 15.72 -11 13 C-9.07859132 9.15718264 -7.4073184 7.19568073 -4.375 4.25 C-3.55773437 3.45078125 -2.74046875 2.6515625 -1.8984375 1.828125 C-0.95871094 0.92320313 -0.95871094 0.92320313 0 0 Z " fill="#C3284D" transform="translate(104,67)"/>
<path d="M0 0 C0.99 0.33 1.98 0.66 3 1 C3 1.66 3 2.32 3 3 C3.66 3 4.32 3 5 3 C4.67 4.32 4.34 5.64 4 7 C4.99 6.67 5.98 6.34 7 6 C10.1875 8.25 10.1875 8.25 13 11 C13 11.99 13 12.98 13 14 C12.01 14 11.02 14 10 14 C9.34 15.32 8.68 16.64 8 18 C6.7922442 14.37673261 7.45688872 13.35853631 9 10 C8.34 10 7.68 10 7 10 C7 10.66 7 11.32 7 12 C6.01 12 5.02 12 4 12 C4 12.99 4 13.98 4 15 C3.34 15 2.68 15 2 15 C2 15.66 2 16.32 2 17 C1.34 17 0.68 17 0 17 C0 11.39 0 5.78 0 0 Z " fill="#BF274A" transform="translate(104,97)"/>
<path d="M0 0 C2.1519437 3.22791555 2.20086443 4.28400809 2 8 C1.01 8.33 0.02 8.66 -1 9 C-0.34 9.61875 0.32 10.2375 1 10.875 C3 13 3 13 3 15 C2.34 15 1.68 15 1 15 C1 14.34 1 13.68 1 13 C-1.0162233 13.71563266 -1.0162233 13.71563266 -3 15 C-3.80528889 17.05000871 -3.80528889 17.05000871 -4 19 C-4.66 19 -5.32 19 -6 19 C-8 16 -8 16 -7.625 13.3125 C-7.41875 12.549375 -7.2125 11.78625 -7 11 C-7.99 10.67 -8.98 10.34 -10 10 C-6.7 6.7 -3.4 3.4 0 0 Z " fill="#FCEDF1" transform="translate(116,80)"/>
<path d="M0 0 C0.66 0 1.32 0 2 0 C1.34 2.64 0.68 5.28 0 8 C1.65 8 3.3 8 5 8 C5.33 8.99 5.66 9.98 6 11 C5.01 11.33 4.02 11.66 3 12 C3.33 12.66 3.66 13.32 4 14 C2.576875 14.4021875 2.576875 14.4021875 1.125 14.8125 C-2.25267273 15.74986588 -2.25267273 15.74986588 -4 19 C-7.39641834 16.73572111 -8.84438646 14.41924906 -11 11 C-9.68 11 -8.36 11 -7 11 C-7 11.99 -7 12.98 -7 14 C-4.2160817 12.60804085 -4.02101003 10.84424221 -3 8 C-3.66 7.67 -4.32 7.34 -5 7 C-5 6.34 -5 5.68 -5 5 C-4.34 5 -3.68 5 -3 5 C-3 4.01 -3 3.02 -3 2 C-2.01 2 -1.02 2 0 2 C0 1.34 0 0.68 0 0 Z " fill="#F8E7EB" transform="translate(111,107)"/>
<path d="M0 0 C2.31 0 4.62 0 7 0 C7 11.88 7 23.76 7 36 C4.69 36 2.38 36 0 36 C-0.495 34.515 -0.495 34.515 -1 33 C-0.34 33 0.32 33 1 33 C1 33.66 1 34.32 1 35 C2.65 35 4.3 35 6 35 C6 24.11 6 13.22 6 2 C4.35 2 2.7 2 1 2 C1.03480469 2.74765625 1.06960937 3.4953125 1.10546875 4.265625 C1.13253906 5.25046875 1.15960938 6.2353125 1.1875 7.25 C1.22230469 8.22453125 1.25710937 9.1990625 1.29296875 10.203125 C0.96075202 13.37468742 0.11327721 14.67040307 -2 17 C-3.32 16.34 -4.64 15.68 -6 15 C-6 14.34 -6 13.68 -6 13 C-6.66 12.67 -7.32 12.34 -8 12 C-7.67 11.67 -7.34 11.34 -7 11 C-8.32 10.34 -9.64 9.68 -11 9 C-5.04296875 8.70703125 -5.04296875 8.70703125 -3 9 C-2.01 9.99 -1.02 10.98 0 12 C0 8.04 0 4.08 0 0 Z " fill="#99999B" transform="translate(117,165)"/>
<path d="M0 0 C8.62242152 -0.76681614 8.62242152 -0.76681614 12 1.11328125 C13.625 2.5 13.625 2.5 16 5 C15.67 5.66 15.34 6.32 15 7 C14.01 7 13.02 7 12 7 C11.67 8.65 11.34 10.3 11 12 C7.04 12 3.08 12 -1 12 C0 7 0 7 1 6 C3.33297433 5.95907063 5.66705225 5.95758277 8 6 C8 4.68 8 3.36 8 2 C5.36 1.67 2.72 1.34 0 1 C0 0.67 0 0.34 0 0 Z " fill="#909092" transform="translate(176,174)"/>
<path d="M0 0 C0.99 0 1.98 0 3 0 C2.79503906 0.80824219 2.59007813 1.61648437 2.37890625 2.44921875 C2.10949219 3.51785156 1.84007813 4.58648437 1.5625 5.6875 C1.29566406 6.74324219 1.02882813 7.79898438 0.75390625 8.88671875 C0.10102068 11.5828317 -0.47941193 14.2757576 -1 17 C-1.66 17 -2.32 17 -3 17 C-3.33 17.66 -3.66 18.32 -4 19 C-3.67 16.69 -3.34 14.38 -3 12 C-3.99 12 -4.98 12 -6 12 C-5.67 13.32 -5.34 14.64 -5 16 C-6.32 16 -7.64 16 -9 16 C-9 15.34 -9 14.68 -9 14 C-9.66 14 -10.32 14 -11 14 C-11 11 -11 11 -9.125 8.8125 C-7 7 -7 7 -5 7 C-4.34 5.68 -3.68 4.36 -3 3 C-2.34 3 -1.68 3 -1 3 C-0.67 2.01 -0.34 1.02 0 0 Z " fill="#EBC4CE" transform="translate(73,97)"/>
<path d="M0 0 C2.625 2.3125 2.625 2.3125 3.625 5.3125 C6.29282307 7.0080538 6.29282307 7.0080538 9.625 7.3125 C12.05078585 5.9216431 13.61964106 4.31785894 15.625 2.3125 C14.965 4.6225 14.305 6.9325 13.625 9.3125 C7.875 10.4375 7.875 10.4375 5.625 9.3125 C5.295 10.6325 4.965 11.9525 4.625 13.3125 C4.15449219 12.76980469 3.68398437 12.22710937 3.19921875 11.66796875 C2.57660156 10.95253906 1.95398438 10.23710938 1.3125 9.5 C0.69761719 8.79230469 0.08273438 8.08460937 -0.55078125 7.35546875 C-3.82235712 3.691584 -5.36110497 1.99005338 -10.375 1.3125 C-10.375 0.9825 -10.375 0.6525 -10.375 0.3125 C-4.26388889 -2.13194444 -4.26388889 -2.13194444 0 0 Z " fill="#F8CFD9" transform="translate(142.375,66.6875)"/>
<path d="M0 0 C0.70125 0.70125 1.4025 1.4025 2.125 2.125 C2.57875 2.57746094 3.0325 3.02992187 3.5 3.49609375 C4.52602754 4.52479323 5.54662775 5.55892688 6.5625 6.59765625 C7.078125 7.12230469 7.59375 7.64695312 8.125 8.1875 C8.60195312 8.67605469 9.07890625 9.16460937 9.5703125 9.66796875 C11.16869084 11.22898483 11.16869084 11.22898483 14 13 C12.68 13 11.36 13 10 13 C10 14.32 10 15.64 10 17 C9.34 17 8.68 17 8 17 C7.79375 16.443125 7.5875 15.88625 7.375 15.3125 C5.44999226 12.07498698 2.96149098 10.31768859 0 8 C0 8.99 0 9.98 0 11 C0.66 11 1.32 11 2 11 C2 11.99 2 12.98 2 14 C0.68 13.34 -0.64 12.68 -2 12 C-2 9.36 -2 6.72 -2 4 C-2.66 3.67 -3.32 3.34 -4 3 C-3.01 3 -2.02 3 -1 3 C-0.67 2.01 -0.34 1.02 0 0 Z " fill="#FADCE2" transform="translate(154,109)"/>
<path d="M0 0 C2.31 0 4.62 0 7 0 C7.33 0.66 7.66 1.32 8 2 C10.32156597 2.40729228 12.6568787 2.74438677 15 3 C15.38218767 4.65614657 15.71395102 6.32457024 16 8 C15 9 15 9 11.3125 9.3125 C6.88460846 9.24878933 4.33325213 8.0080568 1 5 C0.125 2.25 0.125 2.25 0 0 Z " fill="#88878C" transform="translate(73,193)"/>
<path d="M0 0 C0.66 0.66 1.32 1.32 2 2 C3.32 1.34 4.64 0.68 6 0 C6.66 1.98 7.32 3.96 8 6 C7.01 6.495 7.01 6.495 6 7 C6 6.34 6 5.68 6 5 C5.34 5 4.68 5 4 5 C3.67 5.66 3.34 6.32 3 7 C2.67 6.34 2.34 5.68 2 5 C1.51789063 5.56589844 1.03578125 6.13179688 0.5390625 6.71484375 C-0.09257813 7.44832031 -0.72421875 8.18179688 -1.375 8.9375 C-2.00148438 9.66839844 -2.62796875 10.39929688 -3.2734375 11.15234375 C-5 13 -5 13 -7 14 C-9.125 13.5625 -9.125 13.5625 -11 13 C-11 12.34 -11 11.68 -11 11 C-11.99 11 -12.98 11 -14 11 C-14 10.01 -14 9.02 -14 8 C-13.34 8 -12.68 8 -12 8 C-12 7.34 -12 6.68 -12 6 C-10.35 5.34 -8.7 4.68 -7 4 C-7.33 6.31 -7.66 8.62 -8 11 C-4.12047456 8.37051309 -4.12047456 8.37051309 -2.1875 4.25 C-2.125625 3.5075 -2.06375 2.765 -2 2 C-1.34 2 -0.68 2 0 2 C0 1.34 0 0.68 0 0 Z " fill="#FBEBEF" transform="translate(89,103)"/>
<path d="M0 0 C0.66 0.66 1.32 1.32 2 2 C2.99 1.34 3.98 0.68 5 0 C5 6.6 5 13.2 5 20 C3.35 20 1.7 20 0 20 C0 13.4 0 6.8 0 0 Z " fill="#767678" transform="translate(157,180)"/>
<path d="M0 0 C0.66 0 1.32 0 2 0 C2 0.99 2 1.98 2 3 C2.7425 3.2475 3.485 3.495 4.25 3.75 C7.20124062 5.09147301 8.84814974 6.60905526 11 9 C11.33 8.34 11.66 7.68 12 7 C12 7.66 12 8.32 12 9 C12.66 9 13.32 9 14 9 C14.33 8.34 14.66 7.68 15 7 C15 7.99 15 8.98 15 10 C13.35 10 11.7 10 10 10 C9.79375 10.845625 9.5875 11.69125 9.375 12.5625 C7.6867662 16.7830845 5.33740697 19.91735692 2 23 C1.01 23.33 0.02 23.66 -1 24 C-0.52695318 19.74257863 1.8863822 17.74294902 5 15 C5.99 14.67 6.98 14.34 8 14 C6.7625 12.576875 6.7625 12.576875 5.5 11.125 C3 8.25 3 8.25 3 6 C2.34 6 1.68 6 1 6 C0.34 4.35 -0.32 2.7 -1 1 C-0.67 0.67 -0.34 0.34 0 0 Z M-1 24 C-1.33 24.99 -1.66 25.98 -2 27 C-2.99 26.34 -3.98 25.68 -5 25 C-3 24 -3 24 -1 24 Z " fill="#FAE4E8" transform="translate(139,127)"/>
<path d="M0 0 C1.65 0.33 3.3 0.66 5 1 C5 1.66 5 2.32 5 3 C6.65 3.33 8.3 3.66 10 4 C10 5.98 10 7.96 10 10 C7.69 10.66 5.38 11.32 3 12 C2.01 10.68 1.02 9.36 0 8 C0.33 7.34 0.66 6.68 1 6 C0.34 6 -0.32 6 -1 6 C-1.33 6.66 -1.66 7.32 -2 8 C-2 4.23312136 -1.76462683 3.08809695 0 0 Z M4 3 C5 5 5 5 5 5 Z " fill="#D90330" transform="translate(149,56)"/>
<path d="M0 0 C0.33 0.66 0.66 1.32 1 2 C1.66 2 2.32 2 3 2 C2.74347656 2.72574219 2.48695312 3.45148438 2.22265625 4.19921875 C1.67550656 7.14056407 1.67550656 7.14056407 3.87109375 9.45703125 C4.71800781 10.23433594 5.56492188 11.01164062 6.4375 11.8125 C7.28183594 12.60269531 8.12617188 13.39289063 8.99609375 14.20703125 C9.65738281 14.79871094 10.31867188 15.39039062 11 16 C10.34 16.33 9.68 16.66 9 17 C8.34 16.67 7.68 16.34 7 16 C6.67 16.66 6.34 17.32 6 18 C4.35 16.68 2.7 15.36 1 14 C1.66 15.65 2.32 17.3 3 19 C1.68 18.67 0.36 18.34 -1 18 C-1.33 15.03 -1.66 12.06 -2 9 C-1.34 9 -0.68 9 0 9 C-0.33 7.02 -0.66 5.04 -1 3 C-1.99 2.67 -2.98 2.34 -4 2 C-2.68 1.34 -1.36 0.68 0 0 Z " fill="#F9D2DB" transform="translate(123,73)"/>
<path d="M0 0 C1.67542976 0.28604898 3.34385343 0.61781233 5 1 C5 3.64 5 6.28 5 9 C-0.94 9 -6.88 9 -13 9 C-12.67 8.01 -12.34 7.02 -12 6 C-8.37 6 -4.74 6 -1 6 C-1 4.35 -1 2.7 -1 1 C-0.67 0.67 -0.34 0.34 0 0 Z " fill="#787879" transform="translate(188,180)"/>
<path d="M0 0 C1.7143618 1.95927063 3.38405168 3.95880212 5 6 C4.01 6.495 4.01 6.495 3 7 C3 6.34 3 5.68 3 5 C0.21061788 4.58109782 0.21061788 4.58109782 -3 5 C-5.77122275 7.35426499 -5.77122275 7.35426499 -8 10 C-8.99 10.495 -8.99 10.495 -10 11 C-10 11.66 -10 12.32 -10 13 C-9.195625 13.474375 -8.39125 13.94875 -7.5625 14.4375 C-5 16 -5 16 -4 19 C-1.49552484 20.21869929 -1.49552484 20.21869929 1 21 C0.01 21.99 -0.98 22.98 -2 24 C-5.63 20.37 -9.26 16.74 -13 13 C-11.10523955 9.21047909 -9.45852168 7.1893105 -6.5 4.25 C-5.7059375 3.45078125 -4.911875 2.6515625 -4.09375 1.828125 C-2 0 -2 0 0 0 Z " fill="#BB2649" transform="translate(137,98)"/>
<path d="M0 0 C0.99 0.33 1.98 0.66 3 1 C3.33 3.97 3.66 6.94 4 10 C3.34 10 2.68 10 2 10 C2 10.66 2 11.32 2 12 C1.34 12 0.68 12 0 12 C0 12.66 0 13.32 0 14 C-0.66 14 -1.32 14 -2 14 C-2.33 15.32 -2.66 16.64 -3 18 C-3 17.01 -3 16.02 -3 15 C-3.99 14.67 -4.98 14.34 -6 14 C-5.67 13.01 -5.34 12.02 -5 11 C-4.01 10.67 -3.02 10.34 -2 10 C-3.32 8.68 -4.64 7.36 -6 6 C-4.68 6 -3.36 6 -2 6 C-1.855625 5.195625 -1.71125 4.39125 -1.5625 3.5625 C-1 1 -1 1 0 0 Z " fill="#C43050" transform="translate(89,82)"/>
<path d="M0 0 C0.66 0 1.32 0 2 0 C1.67 1.98 1.34 3.96 1 6 C0.34 6 -0.32 6 -1 6 C-1 6.66 -1 7.32 -1 8 C-0.34 8 0.32 8 1 8 C1.33 9.65 1.66 11.3 2 13 C2.66 12.67 3.32 12.34 4 12 C4.66 12.33 5.32 12.66 6 13 C6.33 12.34 6.66 11.68 7 11 C7 11.66 7 12.32 7 13 C7.66 13 8.32 13 9 13 C8.67 14.98 8.34 16.96 8 19 C6.68 19.33 5.36 19.66 4 20 C4.875 16.125 4.875 16.125 6 15 C5.34 14.67 4.68 14.34 4 14 C4 14.66 4 15.32 4 16 C2.68 16.33 1.36 16.66 0 17 C-4 12.25 -4 12.25 -4 10 C-3.34 10 -2.68 10 -2 10 C-2 9.01 -2 8.02 -2 7 C-2.66 7 -3.32 7 -4 7 C-4 6.01 -4 5.02 -4 4 C-2.68 4 -1.36 4 0 4 C0 2.68 0 1.36 0 0 Z " fill="#C78A99" transform="translate(99,132)"/>
<path d="M0 0 C4.01268958 0.54424985 5.98416846 2.52072201 8.8125 5.3125 C9.62332031 6.09238281 10.43414062 6.87226562 11.26953125 7.67578125 C13 10 13 10 12.953125 12.12109375 C11.33278123 15.31529602 8.82000623 16.83999523 6 19 C5.67 18.34 5.34 17.68 5 17 C5.66 17 6.32 17 7 17 C6.67 15.68 6.34 14.36 6 13 C7.32 12.34 8.64 11.68 10 11 C10 10.34 10 9.68 10 9 C6.39007621 9.65585189 6.39007621 9.65585189 3 11 C3.33 8.69 3.66 6.38 4 4 C2.35 3.67 0.7 3.34 -1 3 C-0.67 2.01 -0.34 1.02 0 0 Z " fill="#CA143D" transform="translate(149,83)"/>
<path d="M0 0 C0.47050781 0.40992187 0.94101563 0.81984375 1.42578125 1.2421875 C2.04839844 1.78101562 2.67101562 2.31984375 3.3125 2.875 C3.92738281 3.40867187 4.54226562 3.94234375 5.17578125 4.4921875 C7.13498212 6.1640447 7.13498212 6.1640447 10 8 C10.99 7.34 11.98 6.68 13 6 C12.34 7.32 11.68 8.64 11 10 C10.01 10 9.02 10 8 10 C7.67 10.99 7.34 11.98 7 13 C4.33333333 10.33333333 1.66666667 7.66666667 -1 5 C-1.33 5.66 -1.66 6.32 -2 7 C-1.34 7 -0.68 7 0 7 C0 7.99 0 8.98 0 10 C-1.32 9.67 -2.64 9.34 -4 9 C-4 7.35 -4 5.7 -4 4 C-2.68 3.67 -1.36 3.34 0 3 C0 2.01 0 1.02 0 0 Z " fill="#FBD4DD" transform="translate(126,113)"/>
<path d="M0 0 C6.27 0 12.54 0 19 0 C18.67 0.99 18.34 1.98 18 3 C16.88625 3.12375 15.7725 3.2475 14.625 3.375 C10.96896323 3.6465813 10.96896323 3.6465813 9 6 C5.92351982 6.40480002 4.40373765 6.2291484 1.6875 4.6875 C1.130625 4.130625 0.57375 3.57375 0 3 C0 2.01 0 1.02 0 0 Z " fill="#F6F6F6" transform="translate(175,190)"/>
<path d="M0 0 C2.475 0.99 2.475 0.99 5 2 C5 2.66 5 3.32 5 4 C4.34 4 3.68 4 3 4 C2.67 5.32 2.34 6.64 2 8 C3.32 8 4.64 8 6 8 C6 7.34 6 6.68 6 6 C6.66 6 7.32 6 8 6 C8.33 5.01 8.66 4.02 9 3 C9.66 3 10.32 3 11 3 C10.84518205 5.70931419 10.51827919 7.46584039 8.59765625 9.4453125 C7.10228292 10.67679642 5.5537076 11.8429837 4 13 C3.67 12.34 3.34 11.68 3 11 C0.98330173 9.86649466 0.98330173 9.86649466 -1 9 C-1 7.68 -1 6.36 -1 5 C-1.99 5 -2.98 5 -4 5 C-3.67 4.01 -3.34 3.02 -3 2 C-2.34 2 -1.68 2 -1 2 C-1 2.66 -1 3.32 -1 4 C-0.34 4 0.32 4 1 4 C0.67 2.68 0.34 1.36 0 0 Z " fill="#C21235" transform="translate(148,122)"/>
<path d="M0 0 C5.94 0 11.88 0 18 0 C17.67 0.99 17.34 1.98 17 3 C14.68970915 3.74259349 12.354248 4.411438 10 5 C9.67 5.33 9.34 5.66 9 6 C3.66298343 6.4640884 3.66298343 6.4640884 1.125 4.6875 C0 3 0 3 0 0 Z " fill="#F5F4F6" transform="translate(133,190)"/>
<path d="M0 0 C0.99 0 1.98 0 3 0 C2.67 0.66 2.34 1.32 2 2 C1.80076581 5.24530365 1.68167367 8.4886962 1.57421875 11.73828125 C0.90785214 15.52342494 -0.39885005 17.23270873 -3 20 C-3 17.69 -3 15.38 -3 13 C-3.66 13 -4.32 13 -5 13 C-5 12.34 -5 11.68 -5 11 C-4.34 11 -3.68 11 -3 11 C-2.67 9.02 -2.34 7.04 -2 5 C-2.66 5 -3.32 5 -4 5 C-4 6.32 -4 7.64 -4 9 C-4.99 8.67 -5.98 8.34 -7 8 C-6.34 8 -5.68 8 -5 8 C-5 6.35 -5 4.7 -5 3 C-3.68 3 -2.36 3 -1 3 C-0.67 2.01 -0.34 1.02 0 0 Z " fill="#FAD0DA" transform="translate(103,127)"/>
<path d="M0 0 C0.33 0 0.66 0 1 0 C1.33 2.97 1.66 5.94 2 9 C2.99 9 3.98 9 5 9 C5 9.66 5 10.32 5 11 C3.35 10.67 1.7 10.34 0 10 C0 10.66 0 11.32 0 12 C0.99 12.33 1.98 12.66 3 13 C3 14.32 3 15.64 3 17 C1.68 17 0.36 17 -1 17 C-1 15.68 -1 14.36 -1 13 C-1.8971875 12.8453125 -1.8971875 12.8453125 -2.8125 12.6875 C-5.28243264 11.91123545 -6.32251235 10.92911079 -8 9 C-7.67 8.34 -7.34 7.68 -7 7 C-6.34 7.33 -5.68 7.66 -5 8 C-5.33 6.68 -5.66 5.36 -6 4 C-5.01 4 -4.02 4 -3 4 C-3 5.65 -3 7.3 -3 9 C-2.34 8.67 -1.68 8.34 -1 8 C-1.020625 7.05125 -1.04125 6.1025 -1.0625 5.125 C-1 2 -1 2 0 0 Z " fill="#D18E9F" transform="translate(73,105)"/>
<path d="M0 0 C3.32635882 1.52572656 4.95563002 2.93344504 7 6 C6.01 6.495 6.01 6.495 5 7 C5 6.34 5 5.68 5 5 C2.69 5.33 0.38 5.66 -2 6 C-2.33 6.99 -2.66 7.98 -3 9 C-3.66 9 -4.32 9 -5 9 C-5.66 10.98 -6.32 12.96 -7 15 C-7.99 14.34 -8.98 13.68 -10 13 C-9.48223379 8.89552608 -7.35372556 7.04300477 -4.4375 4.25 C-3.61121094 3.45078125 -2.78492187 2.6515625 -1.93359375 1.828125 C-1.29550781 1.22484375 -0.65742187 0.6215625 0 0 Z " fill="#C02146" transform="translate(119,52)"/>
<path d="M0 0 C0.66 0.33 1.32 0.66 2 1 C1.01 1.99 0.02 2.98 -1 4 C2.86278213 7.86278213 8.87875856 8.85213554 14 10 C14 10.33 14 10.66 14 11 C13.07767578 10.96519531 13.07767578 10.96519531 12.13671875 10.9296875 C11.32847656 10.91164062 10.52023438 10.89359375 9.6875 10.875 C8.48673828 10.84019531 8.48673828 10.84019531 7.26171875 10.8046875 C4.71611424 10.84182678 4.71611424 10.84182678 2 13 C1.01 13.33 0.02 13.66 -1 14 C-1.66 13.67 -2.32 13.34 -3 13 C-3.08121924 11.39667209 -3.13929134 9.79215974 -3.1875 8.1875 C-3.22230469 7.29417969 -3.25710937 6.40085938 -3.29296875 5.48046875 C-2.95081002 2.58352485 -2.24606427 1.77444972 0 0 Z " fill="#8D8C8F" transform="translate(77,175)"/>
<path d="M0 0 C1.65 1.32 3.3 2.64 5 4 C3.46583702 7.98882376 0.5752926 11.64783382 -3 14 C-5.1953125 13.66796875 -5.1953125 13.66796875 -7 13 C-6.67 11.68 -6.34 10.36 -6 9 C-6.66 9 -7.32 9 -8 9 C-8.33 7.35 -8.66 5.7 -9 4 C-7.68 4.33 -6.36 4.66 -5 5 C-5 6.32 -5 7.64 -5 9 C-3.68 8.67 -2.36 8.34 -1 8 C-0.67 5.36 -0.34 2.72 0 0 Z " fill="#CD0A35" transform="translate(142,105)"/>
<path d="M0 0 C-0.60990891 3.55780196 -1.5783681 6.6828589 -3 10 C-1.68 9.67 -0.36 9.34 1 9 C1.66 11.31 2.32 13.62 3 16 C4.32 16.33 5.64 16.66 7 17 C5.33203125 17.79296875 5.33203125 17.79296875 3 18 C0.38671875 16.05078125 0.38671875 16.05078125 -2.3125 13.3125 C-3.21613281 12.42175781 -4.11976563 11.53101562 -5.05078125 10.61328125 C-7 8 -7 8 -6.9140625 5.80859375 C-5.41381824 2.84016174 -3.50910407 0 0 0 Z " fill="#C42D4F" transform="translate(146,88)"/>
<path d="M0 0 C1.98 1.65 3.96 3.3 6 5 C4.53374144 8.34820898 2.66341553 10.69266359 0.125 13.3125 C-0.55304688 14.03050781 -1.23109375 14.74851562 -1.9296875 15.48828125 C-4 17 -4 17 -6.1484375 16.859375 C-8.5736504 15.73374876 -9.56939875 14.21743193 -11 12 C-8.36 12.33 -5.72 12.66 -3 13 C-2.67 11.68 -2.34 10.36 -2 9 C-0.35 8.67 1.3 8.34 3 8 C2.505 7.05125 2.01 6.1025 1.5 5.125 C0 2 0 2 0 0 Z " fill="#C02647" transform="translate(126,58)"/>
<path d="M0 0 C1.1055189 0.93590504 2.20935453 1.87379858 3.3125 2.8125 C3.92738281 3.33457031 4.54226562 3.85664062 5.17578125 4.39453125 C6.85424679 5.87172469 8.43882034 7.40039131 10 9 C9.01 9 8.02 9 7 9 C6.67 10.65 6.34 12.3 6 14 C5.34 13.67 4.68 13.34 4 13 C3.9175 12.4225 3.835 11.845 3.75 11.25 C2.56521939 7.69565816 -0.06164613 6.25065403 -3 4 C-3 4.66 -3 5.32 -3 6 C-2.34 6 -1.68 6 -1 6 C-1 6.99 -1 7.98 -1 9 C-1.99 8.67 -2.98 8.34 -4 8 C-4 6.02 -4 4.04 -4 2 C-2.68 2 -1.36 2 0 2 C0 1.34 0 0.68 0 0 Z " fill="#F7BACC" transform="translate(96,83)"/>
<path d="M0 0 C0.99 0 1.98 0 3 0 C3 0.66 3 1.32 3 2 C3.99 1.67 4.98 1.34 6 1 C8.1875 2.4375 8.1875 2.4375 10 4 C8.02 5.98 6.04 7.96 4 10 C2.0625 9.4375 2.0625 9.4375 0 8 C-0.8125 4.4375 -0.8125 4.4375 -1 1 C-0.67 0.67 -0.34 0.34 0 0 Z " fill="#D10B37" transform="translate(102,81)"/>
<path d="M0 0 C0.66 0 1.32 0 2 0 C1.835 0.94875 1.67 1.8975 1.5 2.875 C0.9473365 5.80168901 0.9473365 5.80168901 1 8 C0.67966043 10.00212229 0.34740923 12.00239695 0 14 C-2.375 13.3125 -2.375 13.3125 -5 12 C-6.3125 9.375 -6.3125 9.375 -7 7 C-3.375 4 -3.375 4 0 4 C0 2.68 0 1.36 0 0 Z " fill="#D4A4B2" transform="translate(130,132)"/>
<path d="M0 0 C1.45903258 0.30921884 2.91720722 0.62248799 4.375 0.9375 C5.18710938 1.11152344 5.99921875 1.28554687 6.8359375 1.46484375 C9 2 9 2 11 3 C11 4.32 11 5.64 11 7 C8.36 7 5.72 7 3 7 C2.67 6.01 2.34 5.02 2 4 C-0.31 4 -2.62 4 -5 4 C-5.33 4.66 -5.66 5.32 -6 6 C-6 5.01 -6 4.02 -6 3 C-2.535 2.505 -2.535 2.505 1 2 C0.67 1.34 0.34 0.68 0 0 Z " fill="#E5E5E6" transform="translate(78,189)"/>
<path d="M0 0 C0.66 0.33 1.32 0.66 2 1 C2 2.65 2 4.3 2 6 C-3.96345767 7.0006709 -8.28728907 7.0662997 -14 5 C-13.67 3.68 -13.34 2.36 -13 1 C-8.13103697 1.59619955 -3.67209049 2.56976822 1 4 C0.67 2.68 0.34 1.36 0 0 Z " fill="#E0E0E1" transform="translate(94,178)"/>
<path d="M0 0 C0.99 0.99 1.98 1.98 3 3 C1.4169423 7.2742558 -1.50568404 9.26531794 -5 12 C-5 11.34 -5 10.68 -5 10 C-6.65 10.33 -8.3 10.66 -10 11 C-9.34 10.67 -8.68 10.34 -8 10 C-7.7525 9.443125 -7.505 8.88625 -7.25 8.3125 C-5.41130826 4.91092027 -2.78996215 2.66865945 0 0 Z " fill="#F6CCD5" transform="translate(146,80)"/>
<path d="M0 0 C4.21982243 1.5628972 6.21523874 4.58866745 9 8 C11.16220617 9.8126505 11.16220617 9.8126505 13 11 C11.63016497 14.16115776 11.0109362 14.9927092 8 17 C8.04125 16.0925 8.0825 15.185 8.125 14.25 C8.00279905 11.07277535 7.75602869 9.58783176 6 7 C2.75073878 4.83382585 2.4014758 4.78664331 -1.1875 5.375 C-3.0746875 5.684375 -3.0746875 5.684375 -5 6 C-3.35 4.02 -1.7 2.04 0 0 Z " fill="#BF3B59" transform="translate(104,67)"/>
<path d="M0 0 C1.65 0 3.3 0 5 0 C5 0.66 5 1.32 5 2 C5.66 2 6.32 2 7 2 C6.875 3.875 6.875 3.875 6 6 C2.40349908 7.59844485 -0.03397243 8 -4 8 C-4 6.68 -4 5.36 -4 4 C-3.34 4 -2.68 4 -2 4 C-2 3.34 -2 2.68 -2 2 C-1.34 2 -0.68 2 0 2 C0 1.34 0 0.68 0 0 Z " fill="#D40631" transform="translate(91,92)"/>
<path d="M0 0 C1.09658936 3.28976808 0.79953138 4.71303767 0 8 C-3.37817425 8.84454356 -5.67465243 9.10844919 -9 8 C-9 7.01 -9 6.02 -9 5 C-8.34 5 -7.68 5 -7 5 C-7 4.34 -7 3.68 -7 3 C-6.01 3 -5.02 3 -4 3 C-3.67 2.34 -3.34 1.68 -3 1 C-2.01 0.67 -1.02 0.34 0 0 Z " fill="#D30530" transform="translate(127,92)"/>
<path d="M0 0 C1.32 1.32 2.64 2.64 4 4 C4.33 3.01 4.66 2.02 5 1 C5.66 1 6.32 1 7 1 C6.25 6.75 6.25 6.75 4 9 C4 10.32 4 11.64 4 13 C2.68 13 1.36 13 0 13 C0 12.34 0 11.68 0 11 C-0.66 11 -1.32 11 -2 11 C-2 10.01 -2 9.02 -2 8 C-1.01 8 -0.02 8 1 8 C-0.3089572 4.87802522 -0.3089572 4.87802522 -3 3 C-2.01 2.01 -1.02 1.02 0 0 Z " fill="#DAA6B3" transform="translate(95,100)"/>
<path d="M0 0 C-0.226875 0.928125 -0.45375 1.85625 -0.6875 2.8125 C-0.790625 3.864375 -0.89375 4.91625 -1 6 C0.37514541 7.7087646 0.37514541 7.7087646 2 9 C2 9.99 2 10.98 2 12 C0.68 11.67 -0.64 11.34 -2 11 C-2.33 9.35 -2.66 7.7 -3 6 C-4.32 6.33 -5.64 6.66 -7 7 C-7.33 5.68 -7.66 4.36 -8 3 C-2.25 0 -2.25 0 0 0 Z " fill="#FEE9ED" transform="translate(141,90)"/>
<path d="M0 0 C2.475 0.495 2.475 0.495 5 1 C5 1.66 5 2.32 5 3 C5.99 3 6.98 3 8 3 C8.33 4.98 8.66 6.96 9 9 C7.02 9.33 5.04 9.66 3 10 C1.87119943 6.68885166 0.78697325 3.41021743 0 0 Z " fill="#FDF6F8" transform="translate(114,73)"/>
<path d="M0 0 C4.2742558 1.5830577 6.26531794 4.50568404 9 8 C6.5625 7.625 6.5625 7.625 4 7 C3.67 6.34 3.34 5.68 3 5 C1.68 5 0.36 5 -1 5 C-1.33 5.99 -1.66 6.98 -2 8 C-3.98 8.33 -5.96 8.66 -8 9 C-7.04270084 7.87411986 -6.08412105 6.7493285 -5.125 5.625 C-4.59132812 4.99851562 -4.05765625 4.37203125 -3.5078125 3.7265625 C-2.38567993 2.44163349 -1.20628025 1.20628025 0 0 Z " fill="#C2284A" transform="translate(150,52)"/>
<path d="M0 0 C1.58246707 -0.08153933 3.16616273 -0.13943557 4.75 -0.1875 C6.07257813 -0.23970703 6.07257813 -0.23970703 7.421875 -0.29296875 C10.49617386 0.05638339 11.78932757 0.86971566 14 3 C14.75 5.6875 14.75 5.6875 15 8 C9.375 8.25 9.375 8.25 6 6 C6 4 6 4 8 2 C5.36 1.67 2.72 1.34 0 1 C0 0.67 0 0.34 0 0 Z " fill="#78787B" transform="translate(80,174)"/>
<path d="M0 0 C3.125 0.25 3.125 0.25 5 1.625 C6.125 3.25 6.125 3.25 6.125 5.25 C5.465 5.25 4.805 5.25 4.125 5.25 C4.125 4.59 4.125 3.93 4.125 3.25 C3.135 4.24 2.145 5.23 1.125 6.25 C1.785 6.58 2.445 6.91 3.125 7.25 C1.475 7.91 -0.175 8.57 -1.875 9.25 C-1.875 8.26 -1.875 7.27 -1.875 6.25 C-2.865 5.92 -3.855 5.59 -4.875 5.25 C-3.76341202 0.32725322 -3.76341202 0.32725322 0 0 Z " fill="#E6B6C3" transform="translate(112.875,120.75)"/>
<path d="M0 0 C1.670625 0.061875 1.670625 0.061875 3.375 0.125 C2.79471011 4.04195679 1.15466299 6.34533701 -1.625 9.125 C-4.859375 9.61328125 -4.859375 9.61328125 -8.375 9.4375 C-9.54546875 9.39238281 -10.7159375 9.34726563 -11.921875 9.30078125 C-12.81390625 9.24277344 -13.7059375 9.18476563 -14.625 9.125 C-14.955 8.465 -15.285 7.805 -15.625 7.125 C-11.665 7.125 -7.705 7.125 -3.625 7.125 C-3.625 6.135 -3.625 5.145 -3.625 4.125 C-2.965 4.125 -2.305 4.125 -1.625 4.125 C-1.955 3.465 -2.285 2.805 -2.625 2.125 C-3.615 2.125 -4.605 2.125 -5.625 2.125 C-3.625 0.125 -3.625 0.125 0 0 Z " fill="#9E9E9F" transform="translate(147.625,192.875)"/>
<path d="M0 0 C3.11433953 3.11433953 3.40240559 3.50500377 3.75 7.5625 C3.82734375 8.34753906 3.9046875 9.13257813 3.984375 9.94140625 C4 12 4 12 3 14 C2.34 14 1.68 14 1 14 C1 14.99 1 15.98 1 17 C0.34 17 -0.32 17 -1 17 C-0.67 11.39 -0.34 5.78 0 0 Z " fill="#BC3F5D" transform="translate(135,128)"/>
<path d="M0 0 C3.21462343 1.65601813 4.87387056 4.20512267 7.0625 7.0625 C6.0725 7.5575 6.0725 7.5575 5.0625 8.0625 C4.7325 7.4025 4.4025 6.7425 4.0625 6.0625 C0.71739648 4.43515234 -1.12585834 4.0625 -4.9375 4.0625 C-4.9375 4.7225 -4.9375 5.3825 -4.9375 6.0625 C-5.576875 6.68125 -6.21625 7.3 -6.875 7.9375 C-8.97167231 10.09770783 -9.52146674 11.15026721 -9.9375 14.0625 C-10.5975 12.7425 -11.2575 11.4225 -11.9375 10.0625 C-10.65687515 8.3550002 -9.31982443 6.68876404 -7.9375 5.0625 C-7.2775 5.0625 -6.6175 5.0625 -5.9375 5.0625 C-5.9375 4.4025 -5.9375 3.7425 -5.9375 3.0625 C-3.98010479 1.17501176 -2.76743009 0.08927194 0 0 Z " fill="#C23053" transform="translate(166.9375,98.9375)"/>
<path d="M0 0 C2.04119788 1.61594832 4.04072937 3.2856382 6 5 C6 5.66 6 6.32 6 7 C5.34 7 4.68 7 4 7 C4 6.34 4 5.68 4 5 C1.9837767 5.71563266 1.9837767 5.71563266 0 7 C-0.80528889 9.05000871 -0.80528889 9.05000871 -1 11 C-1.66 11 -2.32 11 -3 11 C-5 8 -5 8 -5 5 C-4.34 5 -3.68 5 -3 5 C-2.67 4.01 -2.34 3.02 -2 2 C-1.34 2 -0.68 2 0 2 C0 1.34 0 0.68 0 0 Z " fill="#EEC9D5" transform="translate(113,88)"/>
<path d="M0 0 C0.33 0 0.66 0 1 0 C1.05534912 0.79696289 1.11069824 1.59392578 1.16772461 2.41503906 C1.42064335 6.02696083 1.67900999 9.63847285 1.9375 13.25 C2.02451172 14.50425781 2.11152344 15.75851563 2.20117188 17.05078125 C2.28818359 18.25605469 2.37519531 19.46132812 2.46484375 20.703125 C2.543396 21.81333008 2.62194824 22.92353516 2.70288086 24.06738281 C2.94853122 26.49199427 3.32243059 28.66697714 4 31 C2.68 30.67 1.36 30.34 0 30 C0 20.1 0 10.2 0 0 Z " fill="#EDEDF0" transform="translate(124,166)"/>
<path d="M0 0 C3.375 -0.125 3.375 -0.125 7 0 C9 2 9 2 9 5 C5.37 5 1.74 5 -2 5 C-1.34 3.35 -0.68 1.7 0 0 Z " fill="#F1F1F2" transform="translate(177,180)"/>
<path d="M0 0 C3.375 -0.125 3.375 -0.125 7 0 C9 2 9 2 9 5 C5.37 5 1.74 5 -2 5 C-1.34 3.35 -0.68 1.7 0 0 Z " fill="#F0F0F2" transform="translate(135,180)"/>
<path d="M0 0 C2.86697492 1.28519565 4.97607712 2.57129254 7 5 C7 7 7 7 5 9.125 C4.34 9.74375 3.68 10.3625 3 11 C2.34 10.67 1.68 10.34 1 10 C1 9.01 1 8.02 1 7 C0.01 7.33 -0.98 7.66 -2 8 C-2.125 5.125 -2.125 5.125 -2 2 C-1.34 1.34 -0.68 0.68 0 0 Z " fill="#CF5D78" transform="translate(109,134)"/>
<path d="M0 0 C0.99 0.33 1.98 0.66 3 1 C2.67 1.66 2.34 2.32 2 3 C2.99 3 3.98 3 5 3 C5.0825 3.61875 5.165 4.2375 5.25 4.875 C5.79394438 7.17972859 5.79394438 7.17972859 8 8.0625 C8.66 8.371875 9.32 8.68125 10 9 C10.33 9.99 10.66 10.98 11 12 C8.8125 12.3125 8.8125 12.3125 6 12 C3.01595163 9.62632516 1.29971824 7.99137572 0.1875 4.3125 C0 2 0 2 0 0 Z " fill="#E5AFBD" transform="translate(142,124)"/>
<path d="M0 0 C0.99 0 1.98 0 3 0 C2.01 3.3 1.02 6.6 0 10 C-2.64 10.33 -5.28 10.66 -8 11 C-7.67 9.68 -7.34 8.36 -7 7 C-6.34 7 -5.68 7 -5 7 C-4.34 5.68 -3.68 4.36 -3 3 C-2.34 3 -1.68 3 -1 3 C-0.67 2.01 -0.34 1.02 0 0 Z " fill="#F0C7D0" transform="translate(73,97)"/>
<path d="M0 0 C1.32 0.66 2.64 1.32 4 2 C3.67 3.65 3.34 5.3 3 7 C2.01 7 1.02 7 0 7 C0.66 8.65 1.32 10.3 2 12 C1.01 12.495 1.01 12.495 0 13 C-0.103125 12.360625 -0.20625 11.72125 -0.3125 11.0625 C-0.539375 10.381875 -0.76625 9.70125 -1 9 C-1.99 8.67 -2.98 8.34 -4 8 C-4 7.34 -4 6.68 -4 6 C-3.01 6 -2.02 6 -1 6 C-1.020625 5.195625 -1.04125 4.39125 -1.0625 3.5625 C-1 1 -1 1 0 0 Z " fill="#C22849" transform="translate(119,113)"/>
<path d="M0 0 C1.17487036 0.75827092 2.33972592 1.53207755 3.5 2.3125 C4.47453125 2.95638672 4.47453125 2.95638672 5.46875 3.61328125 C5.9740625 4.07089844 6.479375 4.52851562 7 5 C7 5.99 7 6.98 7 8 C6.01 8 5.02 8 4 8 C3.34 9.32 2.68 10.64 2 12 C0.7922442 8.37673261 1.45688872 7.35853631 3 4 C2.34 4 1.68 4 1 4 C1 4.66 1 5.32 1 6 C0.01 6 -0.98 6 -2 6 C-2 4.35 -2 2.7 -2 1 C-1.34 0.67 -0.68 0.34 0 0 Z " fill="#C44A64" transform="translate(110,103)"/>
<path d="M0 0 C0.598125 0.165 1.19625 0.33 1.8125 0.5 C4.11344336 1.1114124 4.11344336 1.1114124 7 1 C7.33 1 7.66 1 8 1 C8 4.63 8 8.26 8 12 C6.02 12.33 4.04 12.66 2 13 C2.515625 12.4225 3.03125 11.845 3.5625 11.25 C5.18829268 9.17250663 5.18829268 9.17250663 4.9375 7.0625 C3.69701142 4.33342513 1.94823995 2.2624722 0 0 Z " fill="#FEE2EB" transform="translate(156,56)"/>
<path d="M0 0 C0.66 0 1.32 0 2 0 C2 0.66 2 1.32 2 2 C2.66 2 3.32 2 4 2 C3.67 3.32 3.34 4.64 3 6 C5.97 6.495 5.97 6.495 9 7 C9.33 6.01 9.66 5.02 10 4 C10.99 5.485 10.99 5.485 12 7 C10.02 8.65 8.04 10.3 6 12 C5.67 11.01 5.34 10.02 5 9 C4.01 8.34 3.02 7.68 2 7 C1.67 6.01 1.34 5.02 1 4 C0.34 3.67 -0.32 3.34 -1 3 C-0.67 2.01 -0.34 1.02 0 0 Z " fill="#C2294D" transform="translate(115,124)"/>
<path d="M0 0 C1.62463842 -0.05395478 3.24978541 -0.09277195 4.875 -0.125 C5.77992188 -0.14820313 6.68484375 -0.17140625 7.6171875 -0.1953125 C10 0 10 0 12 2 C11.01 3.485 11.01 3.485 10 5 C6.375 5.1875 6.375 5.1875 3 5 C2.67 4.01 2.34 3.02 2 2 C1.34 1.34 0.68 0.68 0 0 Z " fill="#7D7D7F" transform="translate(174,175)"/>
<path d="M0 0 C0.66 0 1.32 0 2 0 C2 0.66 2 1.32 2 2 C2.66 2.33 3.32 2.66 4 3 C3.34 3 2.68 3 2 3 C2.33 4.65 2.66 6.3 3 8 C3.66 7.67 4.32 7.34 5 7 C5.25 9.3125 5.25 9.3125 5 12 C3 13.8125 3 13.8125 1 15 C0.34 14.67 -0.32 14.34 -1 14 C-0.9278125 13.32453125 -0.855625 12.6490625 -0.78125 11.953125 C-0.6884375 11.06109375 -0.595625 10.1690625 -0.5 9.25 C-0.4071875 8.36828125 -0.314375 7.4865625 -0.21875 6.578125 C0.05636313 3.76695165 0.05636313 3.76695165 0 0 Z " fill="#EFAFBB" transform="translate(138,131)"/>
<path d="M0 0 C1.65 1.65 3.3 3.3 5 5 C4.01 5.495 4.01 5.495 3 6 C2.34 5.67 1.68 5.34 1 5 C1.33 5.99 1.66 6.98 2 8 C1.34 8 0.68 8 0 8 C0 8.99 0 9.98 0 11 C0.66 11 1.32 11 2 11 C2 11.99 2 12.98 2 14 C0.68 13.34 -0.64 12.68 -2 12 C-2 9.36 -2 6.72 -2 4 C-2.66 3.67 -3.32 3.34 -4 3 C-3.01 3 -2.02 3 -1 3 C-0.67 2.01 -0.34 1.02 0 0 Z " fill="#F8D1DA" transform="translate(154,109)"/>
<path d="M0 0 C1.98 0 3.96 0 6 0 C6 1.65 6 3.3 6 5 C6.66 5.33 7.32 5.66 8 6 C7.67 6.66 7.34 7.32 7 8 C4.08482708 6.92598892 2.22189824 6.22189824 0 4 C0 2.68 0 1.36 0 0 Z " fill="#7F7F82" transform="translate(73,193)"/>
<path d="M0 0 C4.05723077 1.35241026 5.49085419 3.60926242 8 7 C8 7.99 8 8.98 8 10 C7.01 10.33 6.02 10.66 5 11 C5 10.01 5 9.02 5 8 C3.35 8.33 1.7 8.66 0 9 C0.66 7.02 1.32 5.04 2 3 C1.34 3 0.68 3 0 3 C0 2.01 0 1.02 0 0 Z " fill="#C22E51" transform="translate(154,117)"/>
<path d="M0 0 C0.33 1.32 0.66 2.64 1 4 C-4.14285714 8.42857143 -4.14285714 8.42857143 -8 9 C-8 10.32 -8 11.64 -8 13 C-9.32 12.67 -10.64 12.34 -12 12 C-9.6521449 8.14280948 -8.13448944 5.80883913 -4 4 C-2.62913085 2.70529025 -1.28659163 1.37849103 0 0 Z " fill="#FEEFF5" transform="translate(142,117)"/>
<path d="M0 0 C1 2 1 2 1 6 C1.66 5.67 2.32 5.34 3 5 C2.67 6.65 2.34 8.3 2 10 C0.35 9.67 -1.3 9.34 -3 9 C-3 8.34 -3 7.68 -3 7 C-3.99 7 -4.98 7 -6 7 C-6 6.01 -6 5.02 -6 4 C-5.34 4 -4.68 4 -4 4 C-4 3.34 -4 2.68 -4 2 C-2.68 1.34 -1.36 0.68 0 0 Z " fill="#F7C3CF" transform="translate(81,107)"/>
<path d="M0 0 C0.33 0.99 0.66 1.98 1 3 C1.66 3 2.32 3 3 3 C3.08912219 6.83225427 2.87867729 10.26562152 2 14 C0.0625 13.625 0.0625 13.625 -2 13 C-2.33 12.34 -2.66 11.68 -3 11 C-2.34 11 -1.68 11 -1 11 C-0.79029441 6.85906302 -0.79029441 6.85906302 -2 3 C-1.34 3 -0.68 3 0 3 C0 2.01 0 1.02 0 0 Z " fill="#F2CFD4" transform="translate(131,135)"/>
<path d="M0 0 C1.17825358 0.90172468 2.34231577 1.82201502 3.5 2.75 C4.1496875 3.26046875 4.799375 3.7709375 5.46875 4.296875 C7 6 7 6 7 10 C6.01 10.66 5.02 11.32 4 12 C3.71125 11.38125 3.4225 10.7625 3.125 10.125 C2.06279958 7.86674235 2.06279958 7.86674235 0 6 C0.66 6 1.32 6 2 6 C2 5.01 2 4.02 2 3 C1.34 3 0.68 3 0 3 C0 2.01 0 1.02 0 0 Z " fill="#C22147" transform="translate(124,117)"/>
<path d="M0 0 C3 2 3 2 3.6171875 4.05859375 C3.74480469 5.23615234 3.74480469 5.23615234 3.875 6.4375 C3.97554688 7.21996094 4.07609375 8.00242187 4.1796875 8.80859375 C4 11 4 11 2.5703125 12.78515625 C1 14 1 14 0 14 C0 9.38 0 4.76 0 0 Z " fill="#BB2149" transform="translate(74,98)"/>
<path d="M0 0 C0.99 0.99 1.98 1.98 3 3 C2.34 3 1.68 3 1 3 C0.34 4.98 -0.32 6.96 -1 9 C-5.20626034 7.49776416 -6.73900021 4.71449966 -9 1 C-7.68 1 -6.36 1 -5 1 C-5 1.99 -5 2.98 -5 4 C-3.35 3.67 -1.7 3.34 0 3 C0 2.01 0 1.02 0 0 Z " fill="#F6E4E8" transform="translate(109,117)"/>
<path d="M0 0 C0.66 0.33 1.32 0.66 2 1 C1.01 2.98 0.02 4.96 -1 7 C-3.31 7 -5.62 7 -8 7 C-8.33 5.68 -8.66 4.36 -9 3 C-8.43410156 2.86722656 -7.86820313 2.73445312 -7.28515625 2.59765625 C-6.18494141 2.33275391 -6.18494141 2.33275391 -5.0625 2.0625 C-4.33160156 1.88847656 -3.60070312 1.71445313 -2.84765625 1.53515625 C-1.00030102 1.16112431 -1.00030102 1.16112431 0 0 Z " fill="#767678" transform="translate(145,194)"/>
<path d="M0 0 C1.32 0 2.64 0 4 0 C7 4.07142857 7 4.07142857 7 7 C4.69 6.67 2.38 6.34 0 6 C-1.125 2.25 -1.125 2.25 0 0 Z " fill="#DA022D" transform="translate(128,76)"/>
<path d="M0 0 C2.86697492 1.28519565 4.97607712 2.57129254 7 5 C7 5.66 7 6.32 7 7 C5.04072937 8.7143618 3.04119788 10.38405168 1 12 C1 11.01 1 10.02 1 9 C1.66 9 2.32 9 3 9 C2.67 7.68 2.34 6.36 2 5 C1.01 5.495 1.01 5.495 0 6 C0 4.02 0 2.04 0 0 Z " fill="#C14C68" transform="translate(140,134)"/>
<path d="M0 0 C1.65 0 3.3 0 5 0 C4.01 0.495 4.01 0.495 3 1 C3 1.99 3 2.98 3 4 C3.99 4.33 4.98 4.66 6 5 C6.33 5.99 6.66 6.98 7 8 C6.67 8.66 6.34 9.32 6 10 C3.69 9.34 1.38 8.68 -1 8 C-0.01 5.69 0.98 3.38 2 1 C1.34 0.67 0.68 0.34 0 0 Z " fill="#FAE4EA" transform="translate(108,126)"/>
<path d="M0 0 C0.66 1.32 1.32 2.64 2 4 C1.01 4.495 1.01 4.495 0 5 C-0.66 4.67 -1.32 4.34 -2 4 C-2 5.98 -2 7.96 -2 10 C-1.01 10.33 -0.02 10.66 1 11 C0.67 11.99 0.34 12.98 0 14 C-1.98 12.02 -3.96 10.04 -6 8 C-4.55746343 4.63408134 -2.66735273 2.48952921 0 0 Z " fill="#BE2748" transform="translate(130,72)"/>
<path d="M0 0 C2.05078125 0.03255208 4.1015625 0.06510417 6.15234375 0.09765625 C6.15234375 2.07765625 6.15234375 4.05765625 6.15234375 6.09765625 C5.16234375 5.76765625 4.17234375 5.43765625 3.15234375 5.09765625 C3.81234375 5.09765625 4.47234375 5.09765625 5.15234375 5.09765625 C5.15234375 3.77765625 5.15234375 2.45765625 5.15234375 1.09765625 C4.16234375 1.09765625 3.17234375 1.09765625 2.15234375 1.09765625 C1.03449262 3.21550738 1.03449262 3.21550738 0.15234375 6.09765625 C-1.91015625 6.78515625 -1.91015625 6.78515625 -3.84765625 7.09765625 C-2.81269978 0.14866278 -2.81269978 0.14866278 0 0 Z " fill="#8F8F90" transform="translate(160.84765625,164.90234375)"/>
<path d="M0 0 C0 3.52232517 -0.56731481 4.05751328 -2.8125 6.625 C-3.59560547 7.54152344 -3.59560547 7.54152344 -4.39453125 8.4765625 C-6 10 -6 10 -9 11 C-8.52634425 6.73709821 -6.07761678 4.78451042 -3 2 C-2.01 1.34 -1.02 0.68 0 0 Z M-9 11 C-9.33 11.99 -9.66 12.98 -10 14 C-10.99 13.34 -11.98 12.68 -13 12 C-11 11 -11 11 -9 11 Z " fill="#F5D5DF" transform="translate(147,140)"/>
<path d="M0 0 C0.66 0.33 1.32 0.66 2 1 C1.6875 2.875 1.6875 2.875 1 5 C-2 7 -2 7 -6 7 C-5.8125 5.1875 -5.8125 5.1875 -5 3 C-2.5625 1.1875 -2.5625 1.1875 0 0 Z " fill="#FCE4E9" transform="translate(160,99)"/>
<path d="M0 0 C2.79872437 2.52788007 4.45773019 4.20411134 5 8 C2.5625 7.625 2.5625 7.625 0 7 C-0.33 6.34 -0.66 5.68 -1 5 C-2.32 5.33 -3.64 5.66 -5 6 C-4.67 4.68 -4.34 3.36 -4 2 C-3.01 2 -2.02 2 -1 2 C-0.67 1.34 -0.34 0.68 0 0 Z " fill="#FBE3E8" transform="translate(92,78)"/>
<path d="M0 0 C1.32 0.33 2.64 0.66 4 1 C3.67 2.65 3.34 4.3 3 6 C2.01 6 1.02 6 0 6 C-0.66 6.66 -1.32 7.32 -2 8 C-2.99 7.01 -3.98 6.02 -5 5 C-4.34 4.67 -3.68 4.34 -3 4 C-2.34 4.33 -1.68 4.66 -1 5 C-0.67 3.35 -0.34 1.7 0 0 Z " fill="#BE3857" transform="translate(149,114)"/>
<path d="M0 0 C0.84181413 3.15680299 1 5.72572803 1 9 C-0.32 9 -1.64 9 -3 9 C-3 8.34 -3 7.68 -3 7 C-3.66 7 -4.32 7 -5 7 C-4.34 5.68 -3.68 4.36 -3 3 C-2.34 3 -1.68 3 -1 3 C-0.67 2.01 -0.34 1.02 0 0 Z " fill="#F4C6D2" transform="translate(111,138)"/>
<path d="M0 0 C0.66 0 1.32 0 2 0 C1.34 2.97 0.68 5.94 0 9 C-2.475 8.01 -2.475 8.01 -5 7 C-5 6.34 -5 5.68 -5 5 C-4.34 5 -3.68 5 -3 5 C-3 4.01 -3 3.02 -3 2 C-2.01 2 -1.02 2 0 2 C0 1.34 0 0.68 0 0 Z " fill="#F7C2CB" transform="translate(111,107)"/>
<path d="M0 0 C0.33 1.32 0.66 2.64 1 4 C1.66 4 2.32 4 3 4 C2.67 4.99 2.34 5.98 2 7 C2.33 7.33 2.66 7.66 3 8 C3.36162029 9.32594105 3.69728039 10.65938457 4 12 C-0.7361809 8.72110553 -0.7361809 8.72110553 -1.9375 5.4375 C-2 3 -2 3 0 0 Z " fill="#C70E36" transform="translate(159,106)"/>
<path d="M0 0 C1.98 0 3.96 0 6 0 C5.375 2.4375 5.375 2.4375 4 5 C0.875 5.8125 0.875 5.8125 -2 6 C-1.34 4.02 -0.68 2.04 0 0 Z " fill="#FCF5F8" transform="translate(149,107)"/>
<path d="M0 0 C0.33 1.32 0.66 2.64 1 4 C-1.55068845 6.35448165 -2.71017358 6.98327924 -6.25 7.1875 C-7.1575 7.125625 -8.065 7.06375 -9 7 C-7.35 5.68 -5.7 4.36 -4 3 C-4.66 2.34 -5.32 1.68 -6 1 C-3.92446352 0.4465236 -2.15634036 0 0 0 Z " fill="#8E8E8F" transform="translate(115,195)"/>
<path d="M0 0 C0.33 0.66 0.66 1.32 1 2 C1.66 2 2.32 2 3 2 C3 2.99 3 3.98 3 5 C2.34 5 1.68 5 1 5 C2.98 7.97 2.98 7.97 5 11 C4.01 11 3.02 11 2 11 C0 8 0 8 0 5 C-0.66 5 -1.32 5 -2 5 C-2 3.68 -2 2.36 -2 1 C-1.34 0.67 -0.68 0.34 0 0 Z " fill="#ECD0D9" transform="translate(94,137)"/>
<path d="M0 0 C2.0625 0.4375 2.0625 0.4375 4 1 C4.20140476 4.62528568 3.85776765 6.86501708 2 10 C1.34 9.67 0.68 9.34 0 9 C0.66 7.02 1.32 5.04 2 3 C1.34 3 0.68 3 0 3 C0 4.32 0 5.64 0 7 C-0.99 6.67 -1.98 6.34 -3 6 C-2.34 6 -1.68 6 -1 6 C-1.0309375 4.7934375 -1.0309375 4.7934375 -1.0625 3.5625 C-1 1 -1 1 0 0 Z " fill="#F2DDE3" transform="translate(99,129)"/>
<path d="M0 0 C1.65 1.32 3.3 2.64 5 4 C3.46126823 7.71860179 2.52488612 8.35633541 -1 11 C-0.67 7.37 -0.34 3.74 0 0 Z " fill="#BF1C40" transform="translate(142,105)"/>
<path d="M0 0 C0.33 0.99 0.66 1.98 1 3 C1.66 3 2.32 3 3 3 C3 3.66 3 4.32 3 5 C3.99 5.33 4.98 5.66 6 6 C4.02 6.99 2.04 7.98 0 9 C-0.66 8.34 -1.32 7.68 -2 7 C-2.66 6.67 -3.32 6.34 -4 6 C-3.525625 5.566875 -3.05125 5.13375 -2.5625 4.6875 C-0.76313043 2.97690387 -0.76313043 2.97690387 0 0 Z " fill="#F4C8D3" transform="translate(162,93)"/>
<path d="M0 0 C0.99 0.33 1.98 0.66 3 1 C2.625 3.4375 2.625 3.4375 2 6 C1.01 6.495 1.01 6.495 0 7 C-0.65213292 9.02463255 -0.65213292 9.02463255 -1 11 C-2.32 9.35 -3.64 7.7 -5 6 C-3.68 6 -2.36 6 -1 6 C-1.020625 5.195625 -1.04125 4.39125 -1.0625 3.5625 C-1 1 -1 1 0 0 Z " fill="#BF415F" transform="translate(119,82)"/>
<path d="M0 0 C-1.75 3.875 -1.75 3.875 -4 5 C-4.33 4.34 -4.66 3.68 -5 3 C-5.33 5.97 -5.66 8.94 -6 12 C-6.33 12 -6.66 12 -7 12 C-7 8.04 -7 4.08 -7 0 C-4.3333581 -1.33332095 -2.83319697 -0.67102033 0 0 Z " fill="#F7D1DA" transform="translate(141,126)"/>
<path d="M0 0 C0.99 0.33 1.98 0.66 3 1 C1.93283928 2.20205464 0.84561663 3.38632333 -0.25 4.5625 C-1.15492188 5.55443359 -1.15492188 5.55443359 -2.078125 6.56640625 C-4 8 -4 8 -6.171875 7.83984375 C-8 7 -8 7 -9 5 C-7.02 5 -5.04 5 -3 5 C-3 4.01 -3 3.02 -3 2 C-2.01 2 -1.02 2 0 2 C0 1.34 0 0.68 0 0 Z " fill="#BD2647" transform="translate(172,113)"/>
<path d="M0 0 C2.5 1.8125 2.5 1.8125 5 4 C5 4.99 5 5.98 5 7 C2.625 6.75 2.625 6.75 0 6 C-1.3125 3.9375 -1.3125 3.9375 -2 2 C-1.34 2 -0.68 2 0 2 C0 1.34 0 0.68 0 0 Z " fill="#FDD5E2" transform="translate(143,100)"/>
<path d="M0 0 C0.99 0 1.98 0 3 0 C2.67 1.65 2.34 3.3 2 5 C0.68 4.01 -0.64 3.02 -2 2 C-1.34 2 -0.68 2 0 2 C0 1.34 0 0.68 0 0 Z M-5 4 C-2.525 4.99 -2.525 4.99 0 6 C-0.33 6.99 -0.66 7.98 -1 9 C-1.99 8.34 -2.98 7.68 -4 7 C-4.66 7 -5.32 7 -6 7 C-5.67 6.01 -5.34 5.02 -5 4 Z " fill="#F6C3CF" transform="translate(114,97)"/>
<path d="M0 0 C0.66 0 1.32 0 2 0 C2 0.99 2 1.98 2 3 C2.66 3.33 3.32 3.66 4 4 C4 5.65 4 7.3 4 9 C3.01 9 2.02 9 1 9 C0.67 7.68 0.34 6.36 0 5 C-0.99 5 -1.98 5 -3 5 C-3 4.34 -3 3.68 -3 3 C-2.34 3 -1.68 3 -1 3 C-0.67 2.01 -0.34 1.02 0 0 Z " fill="#D2B2B9" transform="translate(80,90)"/>
<path d="M0 0 C0.66 0.66 1.32 1.32 2 2 C1.96712417 4.72869407 1.43602229 7.2966618 1 10 C0.21625 9.649375 -0.5675 9.29875 -1.375 8.9375 C-2.24125 8.628125 -3.1075 8.31875 -4 8 C-4.99 8.495 -4.99 8.495 -6 9 C-5.67 7.68 -5.34 6.36 -5 5 C-4.01 5 -3.02 5 -2 5 C-1.34 3.35 -0.68 1.7 0 0 Z " fill="#FCE1EB" transform="translate(108,60)"/>
<path d="M0 0 C0.66 0 1.32 0 2 0 C1.67 1.98 1.34 3.96 1 6 C0.34 6 -0.32 6 -1 6 C-1 6.66 -1 7.32 -1 8 C-0.34 8 0.32 8 1 8 C1 8.99 1 9.98 1 11 C0.01 10.67 -0.98 10.34 -2 10 C-2 9.01 -2 8.02 -2 7 C-2.66 7 -3.32 7 -4 7 C-4 6.01 -4 5.02 -4 4 C-2.68 4 -1.36 4 0 4 C0 2.68 0 1.36 0 0 Z " fill="#B37A8A" transform="translate(99,132)"/>
<path d="M0 0 C0.33 0 0.66 0 1 0 C1.33 2.97 1.66 5.94 2 9 C2.99 9 3.98 9 5 9 C5 9.66 5 10.32 5 11 C3.35 10.67 1.7 10.34 0 10 C0 10.66 0 11.32 0 12 C-0.66 12 -1.32 12 -2 12 C-1.85904936 10.3745692 -1.71207913 8.74965949 -1.5625 7.125 C-1.48128906 6.22007813 -1.40007812 5.31515625 -1.31640625 4.3828125 C-1 2 -1 2 0 0 Z " fill="#C07485" transform="translate(73,105)"/>
<path d="M0 0 C0.33 0.99 0.66 1.98 1 3 C1.66 3 2.32 3 3 3 C3 4.98 3 6.96 3 9 C2.01 9.33 1.02 9.66 0 10 C0 8.35 0 6.7 0 5 C-0.99 4.67 -1.98 4.34 -3 4 C-2.01 3.67 -1.02 3.34 0 3 C0 2.01 0 1.02 0 0 Z " fill="#FBD9E1" transform="translate(101,104)"/>
<path d="M0 0 C0.66 0 1.32 0 2 0 C3.7143618 1.95927063 5.38405168 3.95880212 7 6 C6.01 6.495 6.01 6.495 5 7 C5 6.34 5 5.68 5 5 C2.03 5 -0.94 5 -4 5 C-2.71937515 3.2925002 -1.38232443 1.62626404 0 0 Z " fill="#C02F54" transform="translate(135,98)"/>
<path d="M0 0 C0.99 0.33 1.98 0.66 3 1 C2.34 3.31 1.68 5.62 1 8 C1.66 8 2.32 8 3 8 C3 8.66 3 9.32 3 10 C1.68 9.67 0.36 9.34 -1 9 C-1 8.34 -1 7.68 -1 7 C-1.66 6.67 -2.32 6.34 -3 6 C-2.01 4.02 -1.02 2.04 0 0 Z " fill="#FBDFE8" transform="translate(169,91)"/>
<path d="M0 0 C0.99 0.33 1.98 0.66 3 1 C3 1.66 3 2.32 3 3 C3.66 3 4.32 3 5 3 C3.61410019 6.09162264 2.50816459 7.49183541 0 10 C0 6.7 0 3.4 0 0 Z " fill="#CC677F" transform="translate(104,97)"/>
<path d="M0 0 C0.99 0.33 1.98 0.66 3 1 C2.67 1.99 2.34 2.98 2 4 C3.32 4.33 4.64 4.66 6 5 C5.67 6.32 5.34 7.64 5 9 C3.02 8.01 1.04 7.02 -1 6 C-0.67 4.02 -0.34 2.04 0 0 Z " fill="#FDEAF1" transform="translate(148,76)"/>
<path d="M0 0 C3.25543229 0.34879632 4.01873107 1.02133261 6.25 3.5625 C6.8275 4.366875 7.405 5.17125 8 6 C6.35 5.67 4.7 5.34 3 5 C3 4.34 3 3.68 3 3 C1.02 3.33 -0.96 3.66 -3 4 C-2.01 2.68 -1.02 1.36 0 0 Z " fill="#BF244C" transform="translate(134,68)"/>
<path d="M0 0 C1.61949011 2.57213134 2.04408751 3.67669159 1.625 6.75 C1.41875 7.4925 1.2125 8.235 1 9 C-0.32 8.01 -1.64 7.02 -3 6 C-2.42655063 3.13275314 -2.1385485 2.1385485 0 0 Z " fill="#C32A50" transform="translate(173,90)"/>
<path d="M0 0 C-0.33 1.65 -0.66 3.3 -1 5 C-2.98 5.33 -4.96 5.66 -7 6 C-6.67 4.35 -6.34 2.7 -6 1 C-3 0 -3 0 0 0 Z " fill="#FAF6FA" transform="translate(109,91)"/>
<path d="M0 0 C4.75 0.75 4.75 0.75 7 3 C6.01 3 5.02 3 4 3 C3.67 4.65 3.34 6.3 3 8 C2.34 7.67 1.68 7.34 1 7 C0.59270772 4.67843403 0.25561323 2.3431213 0 0 Z " fill="#F8D4DA" transform="translate(99,89)"/>
<path d="M0 0 C0.33 0.99 0.66 1.98 1 3 C0.1028125 3.1546875 0.1028125 3.1546875 -0.8125 3.3125 C-3.28243264 4.08876455 -4.32251235 5.07088921 -6 7 C-6.99 6.67 -7.98 6.34 -9 6 C-8.07213211 4.99105628 -7.13231567 3.99309093 -6.1875 3 C-5.66542969 2.443125 -5.14335937 1.88625 -4.60546875 1.3125 C-3 0 -3 0 0 0 Z " fill="#BF3656" transform="translate(183,83)"/>
<path d="M0 0 C2.475 0.495 2.475 0.495 5 1 C5 1.66 5 2.32 5 3 C5.99 3.33 6.98 3.66 8 4 C7.01 4.33 6.02 4.66 5 5 C4.34 5.66 3.68 6.32 3 7 C0 3.375 0 3.375 0 0 Z " fill="#FEE3EA" transform="translate(114,73)"/>
<path d="M0 0 C0.99 0.33 1.98 0.66 3 1 C2.47731534 3.76276177 1.89130413 6.3260876 1 9 C-0.98 6.69 -2.96 4.38 -5 2 C-3.68 2.33 -2.36 2.66 -1 3 C-0.67 2.01 -0.34 1.02 0 0 Z " fill="#C82047" transform="translate(100,79)"/>
<path d="M0 0 C9.17286652 -0.63019694 9.17286652 -0.63019694 12.625 2 C13.07875 2.66 13.5325 3.32 14 4 C13.175 3.690625 12.35 3.38125 11.5 3.0625 C7.60873845 1.88122417 4.03833047 1.41775832 0 1 C0 0.67 0 0.34 0 0 Z M6 4 C6.66 4 7.32 4 8 4 C8 4.66 8 5.32 8 6 C7.34 6 6.68 6 6 6 C6 5.34 6 4.68 6 4 Z " fill="#959496" transform="translate(80,174)"/>
<path d="M0 0 C0.66 0 1.32 0 2 0 C2 1.65 2 3.3 2 5 C1.34 5 0.68 5 0 5 C-0.33 6.32 -0.66 7.64 -1 9 C-1 8.01 -1 7.02 -1 6 C-1.99 5.67 -2.98 5.34 -4 5 C-3.67 4.01 -3.34 3.02 -3 2 C-2.01 1.67 -1.02 1.34 0 1 C0 0.67 0 0.34 0 0 Z " fill="#C84365" transform="translate(87,91)"/>
<path d="M0 0 C1.10102197 3.30306592 0.95067299 4.71585695 0 8 C-0.99 8.495 -0.99 8.495 -2 9 C-2.33 6.36 -2.66 3.72 -3 1 C-2.01 0.67 -1.02 0.34 0 0 Z " fill="#CA0C35" transform="translate(127,92)"/>
<path d="M0 0 C0.99 0.66 1.98 1.32 3 2 C2.65120368 5.25543229 1.97866739 6.01873107 -0.5625 8.25 C-1.366875 8.8275 -2.17125 9.405 -3 10 C-3 8.68 -3 7.36 -3 6 C-2.01 6 -1.02 6 0 6 C0 4.02 0 2.04 0 0 Z " fill="#B32547" transform="translate(159,60)"/>
<path d="M0 0 C0.33 0.66 0.66 1.32 1 2 C1.66 2 2.32 2 3 2 C2.67 3.98 2.34 5.96 2 8 C0.68 8.33 -0.64 8.66 -2 9 C-1.855625 8.443125 -1.71125 7.88625 -1.5625 7.3125 C-0.97230872 4.88615805 -0.476571 2.45093655 0 0 Z " fill="#C38393" transform="translate(105,143)"/>
<path d="M0 0 C0.99 0.66 1.98 1.32 3 2 C2.67 3.98 2.34 5.96 2 8 C1.34 8 0.68 8 0 8 C0 8.99 0 9.98 0 11 C-0.66 10.67 -1.32 10.34 -2 10 C-1.34 6.7 -0.68 3.4 0 0 Z " fill="#BD1A42" transform="translate(136,134)"/>
<path d="M0 0 C1.98 0.66 3.96 1.32 6 2 C4.68 2.33 3.36 2.66 2 3 C2 4.32 2 5.64 2 7 C1.34 7 0.68 7 0 7 C-0.66 5.35 -1.32 3.7 -2 2 C-1.34 2 -0.68 2 0 2 C0 1.34 0 0.68 0 0 Z " fill="#F4C6D3" transform="translate(162,119)"/>
<path d="M0 0 C0.66 0 1.32 0 2 0 C1.67 1.98 1.34 3.96 1 6 C-0.65 6.33 -2.3 6.66 -4 7 C-3.67 5.68 -3.34 4.36 -3 3 C-2.34 3 -1.68 3 -1 3 C-0.67 2.01 -0.34 1.02 0 0 Z " fill="#C28F9D" transform="translate(69,101)"/>
<path d="M0 0 C0.99 0 1.98 0 3 0 C3 1.98 3 3.96 3 6 C3.66 6.33 4.32 6.66 5 7 C3.68 7 2.36 7 1 7 C0.67 7.66 0.34 8.32 0 9 C-0.33 7.35 -0.66 5.7 -1 4 C-0.01 3.67 0.98 3.34 2 3 C2 2.34 2 1.68 2 1 C1.34 0.67 0.68 0.34 0 0 Z " fill="#C0153B" transform="translate(119,85)"/>
<path d="M0 0 C0.66 0.66 1.32 1.32 2 2 C-0.31 4.31 -2.62 6.62 -5 9 C-5.66 8.01 -6.32 7.02 -7 6 C-2.25 2 -2.25 2 0 2 C0 1.34 0 0.68 0 0 Z " fill="#FEE6EE" transform="translate(100,68)"/>
<path d="M0 0 C1.32 0.33 2.64 0.66 4 1 C1.69 3.31 -0.62 5.62 -3 8 C-3.33 7.01 -3.66 6.02 -4 5 C-2.0625 2.3125 -2.0625 2.3125 0 0 Z " fill="#FDDCE1" transform="translate(143,55)"/>
<path d="M0 0 C0.99 0 1.98 0 3 0 C3 2.97 3 5.94 3 9 C1.35 7.68 -0.3 6.36 -2 5 C-1.67 4.34 -1.34 3.68 -1 3 C-0.34 3.33 0.32 3.66 1 4 C0.67 2.68 0.34 1.36 0 0 Z " fill="#B4798A" transform="translate(67,109)"/>
<path d="M0 0 C0.99 0 1.98 0 3 0 C2.67 1.32 2.34 2.64 2 4 C1.34 4 0.68 4 0 4 C0 5.65 0 7.3 0 9 C-0.99 7.68 -1.98 6.36 -3 5 C-1.6875 2.5 -1.6875 2.5 0 0 Z " fill="#EAC9CE" transform="translate(87,101)"/>
<path d="M0 0 C2.42348595 0.08655307 3.68385658 0.6766715 5.375 2.40625 C6.62094897 3.90705217 7.81389216 5.45147031 9 7 C8.01 7.495 8.01 7.495 7 8 C6.67 7.34 6.34 6.68 6 6 C5.01 5.67 4.02 5.34 3 5 C3 4.01 3 3.02 3 2 C1.68 1.67 0.36 1.34 -1 1 C-0.67 0.67 -0.34 0.34 0 0 Z " fill="#BB2648" transform="translate(165,99)"/>
<path d="M0 0 C2.88437779 1.29299694 4.87219421 2.65941363 7 5 C6.67 5.99 6.34 6.98 6 8 C5.01 7.67 4.02 7.34 3 7 C2.67 5.35 2.34 3.7 2 2 C1.34 2 0.68 2 0 2 C0 1.34 0 0.68 0 0 Z " fill="#B6254A" transform="translate(93,87)"/>
<path d="M0 0 C2.00720923 0.28674418 4.0085944 0.61866701 6 1 C6 2.65 6 4.3 6 6 C5.01 5.67 4.02 5.34 3 5 C3 4.01 3 3.02 3 2 C1.68 1.67 0.36 1.34 -1 1 C-0.67 0.67 -0.34 0.34 0 0 Z " fill="#CB0C32" transform="translate(147,86)"/>
<path d="M0 0 C0.33 0.66 0.66 1.32 1 2 C0.67 2.66 0.34 3.32 0 4 C1.32 3.67 2.64 3.34 4 3 C4.33 4.98 4.66 6.96 5 9 C2.69 7.35 0.38 5.7 -2 4 C-1.34 2.68 -0.68 1.36 0 0 Z " fill="#C23151" transform="translate(141,61)"/>
<path d="M0 0 C1.61949011 2.57213134 2.04408751 3.67669159 1.625 6.75 C1.41875 7.4925 1.2125 8.235 1 9 C0.01 8.34 -0.98 7.68 -2 7 C-1.125 2.25 -1.125 2.25 0 0 Z " fill="#CE0F3A" transform="translate(114,61)"/>
<path d="M0 0 C0 1.32 0 2.64 0 4 C-1.98 4.99 -1.98 4.99 -4 6 C-4 5.34 -4 4.68 -4 4 C-4.66 3.67 -5.32 3.34 -6 3 C-3.375 0 -3.375 0 0 0 Z " fill="#777778" transform="translate(166,166)"/>
<path d="M0 0 C-0.33 0.99 -0.66 1.98 -1 3 C-1.66 3 -2.32 3 -3 3 C-3.33 4.32 -3.66 5.64 -4 7 C-5.32 6.67 -6.64 6.34 -8 6 C-7.0479279 4.99403703 -6.08812654 3.99538437 -5.125 3 C-4.59132812 2.443125 -4.05765625 1.88625 -3.5078125 1.3125 C-2 0 -2 0 0 0 Z " fill="#F3BCC9" transform="translate(162,127)"/>
<path d="M0 0 C1.98 0.99 1.98 0.99 4 2 C4.99 1.34 5.98 0.68 7 0 C6.34 1.32 5.68 2.64 5 4 C4.01 4 3.02 4 2 4 C1.67 4.99 1.34 5.98 1 7 C0.67 7 0.34 7 0 7 C0 4.69 0 2.38 0 0 Z " fill="#F6D2DA" transform="translate(132,119)"/>
<path d="M0 0 C0.66 0 1.32 0 2 0 C2.33 2.97 2.66 5.94 3 9 C1.35 7.68 -0.3 6.36 -2 5 C-1.67 4.01 -1.34 3.02 -1 2 C-0.67 2.33 -0.34 2.66 0 3 C0 2.01 0 1.02 0 0 Z " fill="#B77687" transform="translate(98,109)"/>
<path d="M0 0 C0 0.99 0 1.98 0 3 C-0.99 3 -1.98 3 -3 3 C-3.66 4.32 -4.32 5.64 -5 7 C-6 4 -6 4 -5 1 C-3 0 -3 0 0 0 Z " fill="#B44C64" transform="translate(117,108)"/>
<path d="M0 0 C2.1519437 3.22791555 2.20086443 4.28400809 2 8 C0.68 7.67 -0.64 7.34 -2 7 C-1.34 7 -0.68 7 0 7 C0 6.01 0 5.02 0 4 C-0.99 3.67 -1.98 3.34 -3 3 C-2.01 2.01 -1.02 1.02 0 0 Z " fill="#F6CCD4" transform="translate(116,80)"/>
<path d="M0 0 C0.680625 0.53625 1.36125 1.0725 2.0625 1.625 C1.0725 2.12 1.0725 2.12 0.0625 2.625 C-0.9275 2.295 -1.9175 1.965 -2.9375 1.625 C-3.2675 2.285 -3.5975 2.945 -3.9375 3.625 C-5.9175 2.965 -7.8975 2.305 -9.9375 1.625 C-9.9375 1.295 -9.9375 0.965 -9.9375 0.625 C-3.66057692 -1.71346154 -3.66057692 -1.71346154 0 0 Z " fill="#F6CBD4" transform="translate(141.9375,66.375)"/>
<path d="M0 0 C0.66 0 1.32 0 2 0 C2 1.65 2 3.3 2 5 C1.34 5 0.68 5 0 5 C-0.33 6.32 -0.66 7.64 -1 9 C-1 7.68 -1 6.36 -1 5 C-1.99 5 -2.98 5 -4 5 C-3.67 4.01 -3.34 3.02 -3 2 C-2.34 2 -1.68 2 -1 2 C-1 2.66 -1 3.32 -1 4 C-0.34 4 0.32 4 1 4 C0.67 2.68 0.34 1.36 0 0 Z " fill="#BC3954" transform="translate(148,122)"/>
<path d="M0 0 C0 3.16880694 -0.2058242 4.43689172 -2 7 C-4.625 7.75 -4.625 7.75 -7 8 C-6.02133662 6.85373678 -5.04205413 5.70800212 -4.0625 4.5625 C-3.51722656 3.92441406 -2.97195312 3.28632812 -2.41015625 2.62890625 C-1.63204305 1.73008851 -0.84063472 0.84063472 0 0 Z " fill="#FCD4DE" transform="translate(177,111)"/>
<path d="M0 0 C0.99 0.33 1.98 0.66 3 1 C2.67 2.65 2.34 4.3 2 6 C1.34 6 0.68 6 0 6 C-0.33 6.66 -0.66 7.32 -1 8 C-0.67 5.36 -0.34 2.72 0 0 Z " fill="#FED9E5" transform="translate(70,108)"/>
<path d="M0 0 C0.99 0 1.98 0 3 0 C3 0.66 3 1.32 3 2 C3.66 2 4.32 2 5 2 C5.33 3.65 5.66 5.3 6 7 C5.01 7 4.02 7 3 7 C2.67 5.35 2.34 3.7 2 2 C1.34 2 0.68 2 0 2 C0 1.34 0 0.68 0 0 Z " fill="#CF0731" transform="translate(137,103)"/>
<path d="M0 0 C0.99 0.99 1.98 1.98 3 3 C2.67 3.99 2.34 4.98 2 6 C0.68 6 -0.64 6 -2 6 C-2 4.68 -2 3.36 -2 2 C-1.34 2 -0.68 2 0 2 C0 1.34 0 0.68 0 0 Z " fill="#CB0B36" transform="translate(89,94)"/>
<path d="M0 0 C1.32 0 2.64 0 4 0 C4.66 1.65 5.32 3.3 6 5 C5.34 5.66 4.68 6.32 4 7 C1.49962266 4.82575883 0.56371414 3.26954202 0 0 Z " fill="#C81840" transform="translate(173,96)"/>
<path d="M0 0 C2.0625 0.4375 2.0625 0.4375 4 1 C4 1.99 4 2.98 4 4 C2.68 4.33 1.36 4.66 0 5 C-0.5625 3.0625 -0.5625 3.0625 -1 1 C-0.67 0.67 -0.34 0.34 0 0 Z " fill="#FDF8FC" transform="translate(134,92)"/>
<path d="M0 0 C1.32 0.99 2.64 1.98 4 3 C3.34 3 2.68 3 2 3 C2.66 4.65 3.32 6.3 4 8 C2.68 7.67 1.36 7.34 0 7 C0 4.69 0 2.38 0 0 Z " fill="#F194AA" transform="translate(122,84)"/>
<path d="M0 0 C2.88575819 0.39803561 3.82189513 0.79009069 5.75 3.0625 C6.1625 3.701875 6.575 4.34125 7 5 C3.62537285 4.45276317 1.91765 3.9451 -1 2 C-0.67 1.34 -0.34 0.68 0 0 Z " fill="#C13353" transform="translate(149,83)"/>
<path d="M0 0 C0.99 0.33 1.98 0.66 3 1 C3.33 2.65 3.66 4.3 4 6 C3.34 5.67 2.68 5.34 2 5 C2 4.34 2 3.68 2 3 C0.35 3.66 -1.3 4.32 -3 5 C-3 4.01 -3 3.02 -3 2 C-2.01 1.34 -1.02 0.68 0 0 Z " fill="#F8DDE5" transform="translate(181,80)"/>
<path d="M0 0 C1.5625 1.25 1.5625 1.25 3 3 C2.6875 5.1875 2.6875 5.1875 2 7 C0.35 5.02 -1.3 3.04 -3 1 C-2.01 0.67 -1.02 0.34 0 0 Z " fill="#FBD8DC" transform="translate(129,56)"/>
<path d="M0 0 C2.64 0 5.28 0 8 0 C7.34 1.32 6.68 2.64 6 4 C5.01 3.67 4.02 3.34 3 3 C3.33 2.67 3.66 2.34 4 2 C2.68 1.34 1.36 0.68 0 0 Z " fill="#919192" transform="translate(106,174)"/>
<path d="M0 0 C0.33 0.66 0.66 1.32 1 2 C2.32 1.67 3.64 1.34 5 1 C5 1.99 5 2.98 5 4 C2.6875 4.625 2.6875 4.625 0 5 C-0.99 4.34 -1.98 3.68 -3 3 C-2.01 2.01 -1.02 1.02 0 0 Z " fill="#F7D2DC" transform="translate(125,132)"/>
<path d="M0 0 C0.66 0 1.32 0 2 0 C2 0.99 2 1.98 2 3 C2.66 3.33 3.32 3.66 4 4 C4.33 4.99 4.66 5.98 5 7 C3.125 6.8125 3.125 6.8125 1 6 C-0.25 3.4375 -0.25 3.4375 -1 1 C-0.67 0.67 -0.34 0.34 0 0 Z " fill="#FCF6F6" transform="translate(139,127)"/>
<path d="M0 0 C0.99 0.33 1.98 0.66 3 1 C3 1.66 3 2.32 3 3 C2.34 3 1.68 3 1 3 C1 3.66 1 4.32 1 5 C-0.32 5 -1.64 5 -3 5 C-2.625 3.0625 -2.625 3.0625 -2 1 C-1.34 0.67 -0.68 0.34 0 0 Z " fill="#E0032E" transform="translate(153,125)"/>
<path d="M0 0 C0.99 0 1.98 0 3 0 C2.67 1.98 2.34 3.96 2 6 C1.01 6 0.02 6 -1 6 C-1.042721 4.33388095 -1.04063832 2.66617115 -1 1 C-0.67 0.67 -0.34 0.34 0 0 Z " fill="#DE0135" transform="translate(122,125)"/>
<path d="M0 0 C1.32 0.66 2.64 1.32 4 2 C2.74458443 4.51083114 1.49936512 4.87125446 -1 6 C-1.042721 4.33388095 -1.04063832 2.66617115 -1 1 C-0.67 0.67 -0.34 0.34 0 0 Z " fill="#C7365C" transform="translate(119,113)"/>
<path d="M0 0 C1.98 0.495 1.98 0.495 4 1 C4 1.99 4 2.98 4 4 C2.02 4.99 2.02 4.99 0 6 C-1.125 2.25 -1.125 2.25 0 0 Z " fill="#BF2A4D" transform="translate(128,92)"/>
<path d="M0 0 C-0.1875 1.875 -0.1875 1.875 -1 4 C-3.5625 5.25 -3.5625 5.25 -6 6 C-6.33 5.34 -6.66 4.68 -7 4 C-3 0 -3 0 0 0 Z " fill="#E00132" transform="translate(157,91)"/>
<path d="M0 0 C2.97 1.98 2.97 1.98 6 4 C5.67 4.99 5.34 5.98 5 7 C5 6.34 5 5.68 5 5 C3.35 5 1.7 5 0 5 C0 3.35 0 1.7 0 0 Z " fill="#FCCFDB" transform="translate(82,88)"/>
<path d="M0 0 C0.99 0.33 1.98 0.66 3 1 C3 1.66 3 2.32 3 3 C1.04072937 4.7143618 -0.95880212 6.38405168 -3 8 C-3 7.01 -3 6.02 -3 5 C-2.34 5 -1.68 5 -1 5 C-0.67 3.35 -0.34 1.7 0 0 Z " fill="#A8415F" transform="translate(144,138)"/>
<path d="M0 0 C0.66 0 1.32 0 2 0 C2 0.99 2 1.98 2 3 C1.34 3 0.68 3 0 3 C0 4.32 0 5.64 0 7 C-1.32 6.67 -2.64 6.34 -4 6 C-2.7260411 3.96166576 -1.38938077 1.96147874 0 0 Z " fill="#FAFAF8" transform="translate(134,123)"/>
<path d="M0 0 C2.31 1.98 4.62 3.96 7 6 C6.34 6.66 5.68 7.32 5 8 C3.5 6.625 3.5 6.625 2 5 C2 4.34 2 3.68 2 3 C1.34 3 0.68 3 0 3 C0 2.01 0 1.02 0 0 Z " fill="#B33154" transform="translate(124,117)"/>
<path d="M0 0 C0.66 0 1.32 0 2 0 C2 1.98 2 3.96 2 6 C2.66 6 3.32 6 4 6 C4 6.99 4 7.98 4 9 C2.68 8.34 1.36 7.68 0 7 C0 4.69 0 2.38 0 0 Z " fill="#F594AB" transform="translate(152,114)"/>
<path d="M0 0 C0.66 0.33 1.32 0.66 2 1 C1.67 1.99 1.34 2.98 1 4 C1.66 4 2.32 4 3 4 C3 4.99 3 5.98 3 7 C1.68 6.67 0.36 6.34 -1 6 C-1.042721 4.33388095 -1.04063832 2.66617115 -1 1 C-0.67 0.67 -0.34 0.34 0 0 Z " fill="#F394A7" transform="translate(123,116)"/>
<path d="M0 0 C3.16115776 1.36983503 3.9927092 1.9890638 6 5 C4.02 5.33 2.04 5.66 0 6 C0.66 5.67 1.32 5.34 2 5 C1.34 3.35 0.68 1.7 0 0 Z " fill="#BA3E5F" transform="translate(124,87)"/>
<path d="M0 0 C1.98 1.65 3.96 3.3 6 5 C5.01 5.495 5.01 5.495 4 6 C3.34 5.67 2.68 5.34 2 5 C1.67 5.66 1.34 6.32 1 7 C0 2.25 0 2.25 0 0 Z " fill="#F9C9D5" transform="translate(128,84)"/>
<path d="M0 0 C1.98 0 3.96 0 6 0 C4.515 1.98 4.515 1.98 3 4 C1.68 3.34 0.36 2.68 -1 2 C-0.67 1.34 -0.34 0.68 0 0 Z " fill="#C23152" transform="translate(103,87)"/>
<path d="M0 0 C1.98 0.495 1.98 0.495 4 1 C4.33 2.32 4.66 3.64 5 5 C4.01 5 3.02 5 2 5 C2 4.34 2 3.68 2 3 C1.01 2.67 0.02 2.34 -1 2 C-0.67 1.34 -0.34 0.68 0 0 Z " fill="#FFE9F1" transform="translate(124,83)"/>
<path d="M0 0 C1.4606285 2.64738916 2 3.89448334 2 7 C1.01 7 0.02 7 -1 7 C-1 3 -1 3 0 0 Z " fill="#CE0332" transform="translate(98,75)"/>
<path d="M0 0 C0.99 0.33 1.98 0.66 3 1 C-0.465 3.97 -0.465 3.97 -4 7 C-3.04065919 3.16263678 -2.76390737 2.40339772 0 0 Z " fill="#FEE1E9" transform="translate(114,54)"/>
<path d="M0 0 C0.99 0 1.98 0 3 0 C2.67 1.98 2.34 3.96 2 6 C0.68 5.34 -0.64 4.68 -2 4 C-1.67 3.34 -1.34 2.68 -1 2 C-0.67 2 -0.34 2 0 2 C0 1.34 0 0.68 0 0 Z " fill="#B26579" transform="translate(128,140)"/>
<path d="M0 0 C0.99 0.33 1.98 0.66 3 1 C3 3 3 3 1 5.125 C0.34 5.74375 -0.32 6.3625 -1 7 C-1.66 6.67 -2.32 6.34 -3 6 C-2.01 4.02 -1.02 2.04 0 0 Z " fill="#A63555" transform="translate(113,138)"/>
<path d="M0 0 C0.66 0 1.32 0 2 0 C2 0.66 2 1.32 2 2 C2.66 2 3.32 2 4 2 C4 3.65 4 5.3 4 7 C3.34 7 2.68 7 2 7 C1.67 6.01 1.34 5.02 1 4 C0.34 3.67 -0.32 3.34 -1 3 C-0.67 2.01 -0.34 1.02 0 0 Z " fill="#B12D4D" transform="translate(115,124)"/>
<path d="M0 0 C1.32 0.99 2.64 1.98 4 3 C3.625 4.9375 3.625 4.9375 3 7 C2.01 7.495 2.01 7.495 1 8 C0.67 5.36 0.34 2.72 0 0 Z " fill="#BD3455" transform="translate(158,90)"/>
<path d="M0 0 C-0.33 2.31 -0.66 4.62 -1 7 C-1.33 6.34 -1.66 5.68 -2 5 C-2.99 4.67 -3.98 4.34 -5 4 C-1.125 0 -1.125 0 0 0 Z " fill="#FDDEE4" transform="translate(111,86)"/>
<path d="M0 0 C1.65 1.32 3.3 2.64 5 4 C4.34 5.32 3.68 6.64 3 8 C2.67 8 2.34 8 2 8 C2 6.35 2 4.7 2 3 C1.34 3 0.68 3 0 3 C0 2.01 0 1.02 0 0 Z " fill="#B3284A" transform="translate(142,74)"/>
<path d="M0 0 C0.99 0 1.98 0 3 0 C2.67 1.65 2.34 3.3 2 5 C1.01 4.67 0.02 4.34 -1 4 C-0.67 2.68 -0.34 1.36 0 0 Z " fill="#FFE5EC" transform="translate(125,71)"/>
<path d="M0 0 C2 2 2 2 2 5 C0.02 5.33 -1.96 5.66 -4 6 C-2.68 4.02 -1.36 2.04 0 0 Z " fill="#F1C2D2" transform="translate(162,63)"/>
<path d="M0 0 C1.32 0.66 2.64 1.32 4 2 C1.36095629 3.41377341 -1.07120629 4.37240135 -4 5 C-2.68 3.35 -1.36 1.7 0 0 Z " fill="#BB3E59" transform="translate(119,52)"/>
<path d="M0 0 C1.65 0.33 3.3 0.66 5 1 C5 2.65 5 4.3 5 6 C3.02 4.68 1.04 3.36 -1 2 C-0.67 1.34 -0.34 0.68 0 0 Z " fill="#FCE3E6" transform="translate(151,50)"/>
</svg>
